<svg xmlns="http://www.w3.org/2000/svg" width="29.713" height="78.43" viewBox="0 0 29.713 78.43">
  <g id="Grupo_53892" data-name="Grupo 53892" transform="translate(0 78.43) rotate(-90)">
    <path id="Trazado_100597" data-name="Trazado 100597" d="M0,3.308,3.308,0,14.857,11.548l3.308,3.308-3.308,3.308L3.308,29.713,0,26.4,11.548,14.857Z" transform="translate(60.265)" fill="#fe502d"/>
    <path id="Trazado_100598" data-name="Trazado 100598" d="M0,3.308,3.308,0,14.857,11.548l3.308,3.308-3.308,3.308L3.308,29.713,0,26.4,11.548,14.857Z" transform="translate(45.199)" fill="#fe502d"/>
    <path id="Trazado_100599" data-name="Trazado 100599" d="M0,3.308,3.308,0,14.857,11.548l3.308,3.308-3.308,3.308L3.308,29.713,0,26.4,11.548,14.857Z" transform="translate(30.133)" fill="#fe502d"/>
    <path id="Trazado_100600" data-name="Trazado 100600" d="M0,3.308,3.308,0,14.857,11.548l3.308,3.308-3.308,3.308L3.308,29.713,0,26.4,11.548,14.857Z" transform="translate(15.066)" fill="#fe502d"/>
    <path id="Trazado_100601" data-name="Trazado 100601" d="M11.548,14.857,0,3.308,3.308,0,14.857,11.548l3.308,3.308-3.308,3.308L3.308,29.713,0,26.4Z" fill="#fe502d"/>
  </g>
</svg>
