<svg xmlns="http://www.w3.org/2000/svg" width="77.265" height="29.271" viewBox="0 0 77.265 29.271">
  <g id="Grupo_53898" data-name="Grupo 53898" transform="translate(0)">
    <path id="Trazado_100597" data-name="Trazado 100597" d="M549.025-209.469l3.259-3.259,11.377,11.377,3.259,3.259-3.259,3.259-11.377,11.377-3.259-3.259L560.4-198.092Z" transform="translate(-489.655 212.728)" fill="#2d54fe"/>
    <path id="Trazado_100598" data-name="Trazado 100598" d="M603.882-209.469l3.259-3.259,11.377,11.377,3.259,3.259-3.259,3.259-11.377,11.377-3.259-3.259,11.377-11.377Z" transform="translate(-559.354 212.728)" fill="#2d54fe"/>
    <path id="Trazado_100599" data-name="Trazado 100599" d="M658.739-209.469,662-212.728l11.377,11.377,3.259,3.259-3.259,3.259L662-183.456l-3.259-3.259,11.377-11.377Z" transform="translate(-629.054 212.728)" fill="#2d54fe"/>
    <path id="Trazado_100600" data-name="Trazado 100600" d="M713.6-209.469l3.259-3.259,11.377,11.377,3.259,3.259-3.259,3.259-11.377,11.377-3.259-3.259,11.377-11.377Z" transform="translate(-698.754 212.728)" fill="#2d54fe"/>
    <path id="Trazado_100601" data-name="Trazado 100601" d="M779.83-198.092l-11.377-11.377,3.259-3.259,11.377,11.377,3.259,3.259-3.259,3.259-11.377,11.377-3.259-3.259Z" transform="translate(-768.453 212.728)" fill="#2d54fe"/>
  </g>
</svg>
