<svg id="Grupo_53891" data-name="Grupo 53891" xmlns="http://www.w3.org/2000/svg" width="77.265" height="29.271" viewBox="0 0 77.265 29.271">
  <path id="Trazado_100597" data-name="Trazado 100597" d="M566.92-209.469l-3.259-3.259-11.377,11.377-3.259,3.259,3.259,3.259,11.377,11.377,3.259-3.259-11.377-11.377Z" transform="translate(-549.025 212.728)" fill="#fff"/>
  <path id="Trazado_100598" data-name="Trazado 100598" d="M621.777-209.469l-3.259-3.259-11.377,11.377-3.259,3.259,3.259,3.259,11.377,11.377,3.259-3.259L610.4-198.092Z" transform="translate(-589.04 212.728)" fill="#fff"/>
  <path id="Trazado_100599" data-name="Trazado 100599" d="M676.634-209.469l-3.259-3.259L662-201.351l-3.259,3.259L662-194.833l11.377,11.377,3.259-3.259-11.377-11.377Z" transform="translate(-629.055 212.728)" fill="#fff"/>
  <path id="Trazado_100600" data-name="Trazado 100600" d="M731.492-209.469l-3.259-3.259-11.377,11.377-3.259,3.259,3.259,3.259,11.377,11.377,3.259-3.259-11.377-11.377Z" transform="translate(-669.069 212.728)" fill="#fff"/>
  <path id="Trazado_100601" data-name="Trazado 100601" d="M774.972-198.092l11.377-11.377-3.259-3.259-11.377,11.377-3.259,3.259,3.259,3.259,11.377,11.377,3.259-3.259Z" transform="translate(-709.084 212.728)" fill="#fff"/>
</svg>
