<svg xmlns="http://www.w3.org/2000/svg" width="30.982" height="81.779" viewBox="0 0 30.982 81.779">
  <g id="Grupo_53897" data-name="Grupo 53897" transform="translate(30.982) rotate(90)">
    <path id="Trazado_100597" data-name="Trazado 100597" d="M0,3.45,3.45,0,15.491,12.041l3.45,3.45-3.45,3.45L3.45,30.982,0,27.532,12.041,15.491Z" transform="translate(62.838)" fill="#2d54fe"/>
    <path id="Trazado_100598" data-name="Trazado 100598" d="M0,3.45,3.45,0,15.491,12.041l3.45,3.45-3.45,3.45L3.45,30.982,0,27.532,12.041,15.491Z" transform="translate(47.129)" fill="#2d54fe"/>
    <path id="Trazado_100599" data-name="Trazado 100599" d="M0,3.45,3.45,0,15.491,12.041l3.45,3.45-3.45,3.45L3.45,30.982,0,27.532,12.041,15.491Z" transform="translate(31.419)" fill="#2d54fe"/>
    <path id="Trazado_100600" data-name="Trazado 100600" d="M0,3.45,3.45,0,15.491,12.041l3.45,3.45-3.45,3.45L3.45,30.982,0,27.532,12.041,15.491Z" transform="translate(15.71)" fill="#2d54fe"/>
    <path id="Trazado_100601" data-name="Trazado 100601" d="M12.041,15.491,0,3.45,3.45,0,15.491,12.041l3.45,3.45-3.45,3.45L3.45,30.982,0,27.532Z" fill="#2d54fe"/>
  </g>
</svg>
