<svg xmlns="http://www.w3.org/2000/svg" xmlns:xlink="http://www.w3.org/1999/xlink" width="105.858" height="205.504" viewBox="0 0 105.858 205.504">
  <defs>
    <clipPath id="clip-path">
      <rect id="Rectángulo_380515" data-name="Rectángulo 380515" width="21.32" height="77.959" fill="#fff"/>
    </clipPath>
  </defs>
  <g id="Grupo_1083483" data-name="Grupo 1083483" transform="translate(-608.75 -2584)">
    <g id="Grupo_1083464" data-name="Grupo 1083464" transform="translate(600 2584)">
      <path id="Trazado_785908" data-name="Trazado 785908" d="M110.535,0h-87.6L13.805,9.129H119.663Z" transform="translate(-5.055 0)" fill="#2848d1"/>
      <path id="Trazado_776701" data-name="Trazado 776701" d="M102.835,205.505H41.182c-7.165,0-12.974-9.379-12.974-20.948V0h87.6V184.557c0,11.569-5.809,20.948-12.974,20.948" transform="translate(-10.461 -0.001)" fill="#2d54fe"/>
      <g id="Grupo_1083466" data-name="Grupo 1083466" transform="translate(55.68 64.059)" clip-path="url(#clip-path)">
        <path id="Trazado_838051" data-name="Trazado 838051" d="M21.3,0c.3.079.6.183.907.233a7.981,7.981,0,0,1,6.775,5.951,8.4,8.4,0,0,1-6.575,10.753A8.5,8.5,0,0,1,18.044.563a16.6,16.6,0,0,1,2.01-.429L19.744,0Z" transform="translate(-8.039)" fill="#fff"/>
        <path id="Trazado_838052" data-name="Trazado 838052" d="M.5,81.916c.134-.632.26-1.262.4-1.888.1-.418.095-.962.361-1.207s.808-.211,1.233-.264c2.5-.312,5.01-.608,7.514-.92,2.189-.272,4.376-.561,6.564-.838,1.343-.17,2.687-.329,4.1-.5-.091.48-.168.942-.266,1.4q-1.886,8.879-3.777,17.756-1.53,7.186-3.064,14.371-.791,3.721-1.563,7.445a4,4,0,0,0,.106,2.217,2.308,2.308,0,0,0,2.318,1.726,8.941,8.941,0,0,0,5.907-1.83.878.878,0,0,1,.105-.075.632.632,0,0,1,.118-.031,1.954,1.954,0,0,1-.021.234c-.183.844-.387,1.684-.548,2.533a2,2,0,0,1-.648,1.135,16.213,16.213,0,0,1-5.536,3.3,18.406,18.406,0,0,1-6.727,1.215,8.137,8.137,0,0,1-4.272-1.062,5.893,5.893,0,0,1-2.722-4.548,21.381,21.381,0,0,1,.717-7.2q1.414-6.639,2.828-13.278,1.106-5.2,2.21-10.4c.381-1.8.782-3.606,1.11-5.42A2.3,2.3,0,0,0,5.115,82.84c-1.092-.308-2.224-.475-3.339-.7C1.368,82.06.958,82,.5,81.916" transform="translate(0 -49.738)" fill="#fff"/>
      </g>
    </g>
  </g>
</svg>
