<svg xmlns="http://www.w3.org/2000/svg" width="820" height="127.18" viewBox="0 0 820 127.18">
  <g id="Grupo_1083483" data-name="Grupo 1083483" transform="translate(-600 -506)">
    <path id="Trazado_838048" data-name="Trazado 838048" d="M504.849,0l21.36,62.062L503.8,127.179h276.41l22.412-65.117L781.259,0Z" transform="translate(354.56 506)" fill="#2d54fe"/>
    <path id="Trazado_838049" data-name="Trazado 838049" d="M254.281,0H25.671A25.671,25.671,0,0,0,0,25.67v75.839a25.671,25.671,0,0,0,25.671,25.67H253.229l22.412-65.117Z" transform="translate(600 506)" fill="#fe502d"/>
    <path id="Trazado_838050" data-name="Trazado 838050" d="M1307.231,0H1053.849l21.36,62.062L1052.8,127.179h254.434a25.67,25.67,0,0,0,25.67-25.67V25.67A25.67,25.67,0,0,0,1307.231,0" transform="translate(87.099 506)" fill="#ffca00"/>
    <path id="Trazado_838068" data-name="Trazado 838068" d="M0,0H820V127H0Z" transform="translate(600 506)" fill="none"/>
    <path id="Trazado_838069" data-name="Trazado 838069" d="M6.716-7.289a10.139,10.139,0,0,1-4.037-1.96,3.744,3.744,0,0,1-1.263-2.869,3.955,3.955,0,0,1,1.544-3.2,6.137,6.137,0,0,1,4.015-1.263,6.7,6.7,0,0,1,3,.651,4.94,4.94,0,0,1,2.044,1.8,4.6,4.6,0,0,1,.724,2.5H10.579a2.99,2.99,0,0,0-.943-2.339,3.836,3.836,0,0,0-2.662-.851,3.927,3.927,0,0,0-2.488.7,2.346,2.346,0,0,0-.893,1.952,2.11,2.11,0,0,0,.848,1.693A8.317,8.317,0,0,0,7.328-9.2a13.392,13.392,0,0,1,3.189,1.264,4.84,4.84,0,0,1,1.707,1.612,4.113,4.113,0,0,1,.556,2.167A3.82,3.82,0,0,1,11.23-.971,6.608,6.608,0,0,1,7.086.225,7.686,7.686,0,0,1,3.942-.421,5.292,5.292,0,0,1,1.69-2.19,4.317,4.317,0,0,1,.9-4.739H3.066A2.816,2.816,0,0,0,4.161-2.4a4.61,4.61,0,0,0,2.926.859,4.238,4.238,0,0,0,2.617-.7,2.262,2.262,0,0,0,.91-1.9,2.22,2.22,0,0,0-.842-1.859A9.711,9.711,0,0,0,6.716-7.289Zm7.951,1.1a7.177,7.177,0,0,1,.7-3.212,5.236,5.236,0,0,1,1.954-2.2,5.319,5.319,0,0,1,2.858-.775A5.124,5.124,0,0,1,24.2-10.658a6.611,6.611,0,0,1,1.533,4.571v.146a7.24,7.24,0,0,1-.679,3.184,5.159,5.159,0,0,1-1.943,2.2,5.38,5.38,0,0,1-2.9.786,5.112,5.112,0,0,1-4-1.718,6.577,6.577,0,0,1-1.533-4.548Zm2.089.247A5.2,5.2,0,0,0,17.694-2.7,3,3,0,0,0,20.2-1.471a2.983,2.983,0,0,0,2.516-1.241,5.685,5.685,0,0,0,.932-3.476,5.189,5.189,0,0,0-.949-3.24,3.017,3.017,0,0,0-2.521-1.241A2.983,2.983,0,0,0,17.7-9.445,5.642,5.642,0,0,0,16.756-5.941Zm21.843,0a7.276,7.276,0,0,1-1.269,4.47,4.067,4.067,0,0,1-3.437,1.7,4.456,4.456,0,0,1-3.481-1.4V4.672H28.334V-12.151h1.9l.1,1.348a4.28,4.28,0,0,1,3.526-1.572,4.144,4.144,0,0,1,3.465,1.651A7.355,7.355,0,0,1,38.6-6.132Zm-2.078-.236a5.369,5.369,0,0,0-.876-3.246,2.822,2.822,0,0,0-2.4-1.19,3.054,3.054,0,0,0-2.83,1.673v5.806a3.06,3.06,0,0,0,2.853,1.662A2.809,2.809,0,0,0,35.64-2.656,5.861,5.861,0,0,0,36.521-6.177Zm4.167-.011a7.177,7.177,0,0,1,.7-3.212,5.236,5.236,0,0,1,1.954-2.2,5.319,5.319,0,0,1,2.858-.775,5.124,5.124,0,0,1,4.015,1.718A6.611,6.611,0,0,1,51.75-6.087v.146a7.24,7.24,0,0,1-.679,3.184,5.159,5.159,0,0,1-1.943,2.2,5.38,5.38,0,0,1-2.9.786,5.112,5.112,0,0,1-4-1.718,6.577,6.577,0,0,1-1.533-4.548Zm2.089.247A5.2,5.2,0,0,0,43.715-2.7a3,3,0,0,0,2.51,1.224A2.983,2.983,0,0,0,48.74-2.712a5.685,5.685,0,0,0,.932-3.476,5.189,5.189,0,0,0-.949-3.24A3.017,3.017,0,0,0,46.2-10.669,2.983,2.983,0,0,0,43.72-9.445,5.642,5.642,0,0,0,42.777-5.941Zm17.452-4.346a6.226,6.226,0,0,0-1.022-.079,2.738,2.738,0,0,0-2.774,1.741V0H54.355V-12.151h2.021l.034,1.4a3.235,3.235,0,0,1,2.9-1.628,2.123,2.123,0,0,1,.921.157Zm5.29-4.807v2.942h2.269v1.606H65.519V-3a1.687,1.687,0,0,0,.3,1.1,1.276,1.276,0,0,0,1.033.365,5.03,5.03,0,0,0,.988-.135V0a6.059,6.059,0,0,1-1.595.223,2.587,2.587,0,0,1-2.1-.842,3.618,3.618,0,0,1-.708-2.392v-7.536H61.229v-1.606h2.212v-2.942ZM75.255.225A5.309,5.309,0,0,1,71.235-1.4a6.023,6.023,0,0,1-1.55-4.341v-.382a7.292,7.292,0,0,1,.691-3.229,5.388,5.388,0,0,1,1.932-2.224,4.857,4.857,0,0,1,2.69-.8,4.551,4.551,0,0,1,3.684,1.561,6.759,6.759,0,0,1,1.314,4.47v.865H71.763a4.319,4.319,0,0,0,1.05,2.9,3.3,3.3,0,0,0,2.555,1.106,3.619,3.619,0,0,0,1.864-.449,4.684,4.684,0,0,0,1.336-1.19l1.269.988A5.1,5.1,0,0,1,75.255.225ZM75-10.669a2.771,2.771,0,0,0-2.111.915A4.449,4.449,0,0,0,71.83-7.187h6.087v-.157A3.957,3.957,0,0,0,77.063-9.8,2.609,2.609,0,0,0,75-10.669ZM89.473-3.223a1.53,1.53,0,0,0-.635-1.308,6.108,6.108,0,0,0-2.212-.8,10.46,10.46,0,0,1-2.5-.809,3.563,3.563,0,0,1-1.37-1.123,2.686,2.686,0,0,1-.444-1.55,3.152,3.152,0,0,1,1.263-2.527A4.934,4.934,0,0,1,86.8-12.376a5.077,5.077,0,0,1,3.352,1.067A3.389,3.389,0,0,1,91.438-8.58H89.35a1.876,1.876,0,0,0-.724-1.471,2.714,2.714,0,0,0-1.825-.618,2.84,2.84,0,0,0-1.774.494,1.555,1.555,0,0,0-.64,1.292,1.26,1.26,0,0,0,.6,1.134,7.323,7.323,0,0,0,2.151.73,11.206,11.206,0,0,1,2.521.831,3.678,3.678,0,0,1,1.432,1.162,2.858,2.858,0,0,1,.466,1.656,3.11,3.11,0,0,1-1.3,2.611,5.464,5.464,0,0,1-3.38.983,6.119,6.119,0,0,1-2.583-.517,4.2,4.2,0,0,1-1.758-1.443,3.478,3.478,0,0,1-.635-2H83.97a2.151,2.151,0,0,0,.837,1.656,3.246,3.246,0,0,0,2.061.612,3.351,3.351,0,0,0,1.892-.477A1.467,1.467,0,0,0,89.473-3.223Z" transform="translate(685.864 562.291)" fill="#fff"/>
    <path id="Trazado_838070" data-name="Trazado 838070" d="M1.067-6.177a7.118,7.118,0,0,1,1.325-4.5,4.191,4.191,0,0,1,3.47-1.7,4.214,4.214,0,0,1,3.38,1.46V-17.25H11.32V0H9.411l-.1-1.3A4.231,4.231,0,0,1,5.84.225,4.15,4.15,0,0,1,2.4-1.5,7.2,7.2,0,0,1,1.067-6.02Zm2.078.236A5.39,5.39,0,0,0,4-2.707,2.759,2.759,0,0,0,6.356-1.539,3.031,3.031,0,0,0,9.243-3.313V-8.895a3.054,3.054,0,0,0-2.864-1.718A2.772,2.772,0,0,0,4-9.434,5.934,5.934,0,0,0,3.145-5.941ZM19.586.225A5.309,5.309,0,0,1,15.565-1.4a6.023,6.023,0,0,1-1.55-4.341v-.382a7.292,7.292,0,0,1,.691-3.229,5.388,5.388,0,0,1,1.932-2.224,4.857,4.857,0,0,1,2.69-.8,4.551,4.551,0,0,1,3.684,1.561,6.759,6.759,0,0,1,1.314,4.47v.865H16.093a4.319,4.319,0,0,0,1.05,2.9A3.3,3.3,0,0,0,19.7-1.471a3.619,3.619,0,0,0,1.864-.449A4.684,4.684,0,0,0,22.9-3.111l1.269.988A5.1,5.1,0,0,1,19.586.225Zm-.258-10.894a2.771,2.771,0,0,0-2.111.915,4.449,4.449,0,0,0-1.056,2.566h6.087v-.157A3.957,3.957,0,0,0,21.394-9.8,2.609,2.609,0,0,0,19.328-10.669ZM37.3-1.471a2.993,2.993,0,0,0,1.943-.674A2.371,2.371,0,0,0,40.16-3.83h1.965a3.768,3.768,0,0,1-.719,1.988,4.734,4.734,0,0,1-1.769,1.5A5.1,5.1,0,0,1,37.3.225a5.006,5.006,0,0,1-3.948-1.656,6.6,6.6,0,0,1-1.466-4.531v-.348a7.316,7.316,0,0,1,.651-3.156,4.961,4.961,0,0,1,1.87-2.145,5.312,5.312,0,0,1,2.881-.764,4.873,4.873,0,0,1,3.4,1.224,4.375,4.375,0,0,1,1.443,3.178H40.16a2.863,2.863,0,0,0-.893-1.937,2.777,2.777,0,0,0-1.982-.758,2.908,2.908,0,0,0-2.454,1.14,5.353,5.353,0,0,0-.87,3.3v.393a5.247,5.247,0,0,0,.865,3.234A2.922,2.922,0,0,0,37.3-1.471Zm6.615-4.717a7.177,7.177,0,0,1,.7-3.212,5.236,5.236,0,0,1,1.954-2.2,5.319,5.319,0,0,1,2.858-.775,5.124,5.124,0,0,1,4.015,1.718,6.611,6.611,0,0,1,1.533,4.571v.146a7.24,7.24,0,0,1-.679,3.184,5.159,5.159,0,0,1-1.943,2.2,5.38,5.38,0,0,1-2.9.786,5.112,5.112,0,0,1-4-1.718,6.577,6.577,0,0,1-1.533-4.548ZM46-5.941A5.2,5.2,0,0,0,46.938-2.7a3,3,0,0,0,2.51,1.224,2.983,2.983,0,0,0,2.516-1.241A5.685,5.685,0,0,0,52.9-6.188a5.189,5.189,0,0,0-.949-3.24,3.017,3.017,0,0,0-2.521-1.241,2.983,2.983,0,0,0-2.482,1.224A5.642,5.642,0,0,0,46-5.941Zm13.544-6.21.067,1.527a4.428,4.428,0,0,1,3.639-1.752q3.852,0,3.886,4.346V0H65.058V-8.041a2.8,2.8,0,0,0-.6-1.943,2.408,2.408,0,0,0-1.836-.629,3,3,0,0,0-1.774.539,3.661,3.661,0,0,0-1.19,1.415V0H57.579V-12.151Zm13.544-2.942v2.942h2.269v1.606H73.088V-3a1.687,1.687,0,0,0,.3,1.1,1.276,1.276,0,0,0,1.033.365,5.03,5.03,0,0,0,.988-.135V0a6.059,6.059,0,0,1-1.595.223,2.587,2.587,0,0,1-2.1-.842A3.618,3.618,0,0,1,71.01-3.01v-7.536H68.8v-1.606H71.01v-2.942ZM85.284,0a4.364,4.364,0,0,1-.292-1.28,4.636,4.636,0,0,1-3.459,1.5A4.289,4.289,0,0,1,78.585-.792a3.288,3.288,0,0,1-1.151-2.577,3.435,3.435,0,0,1,1.443-2.948,6.8,6.8,0,0,1,4.06-1.05h2.021v-.955a2.333,2.333,0,0,0-.651-1.735,2.618,2.618,0,0,0-1.92-.646,3.03,3.03,0,0,0-1.864.562,1.655,1.655,0,0,0-.752,1.359H77.681a2.867,2.867,0,0,1,.646-1.758,4.407,4.407,0,0,1,1.752-1.342,5.894,5.894,0,0,1,2.431-.494,4.8,4.8,0,0,1,3.291,1.05,3.788,3.788,0,0,1,1.235,2.892v5.593A6.838,6.838,0,0,0,87.463-.18V0ZM81.836-1.583a3.651,3.651,0,0,0,1.853-.505A3.057,3.057,0,0,0,84.958-3.4V-5.9H83.33q-3.818,0-3.818,2.235a1.891,1.891,0,0,0,.651,1.527A2.5,2.5,0,0,0,81.836-1.583ZM100.58-5.941A7.225,7.225,0,0,1,99.3-1.466,4.091,4.091,0,0,1,95.863.225,4.236,4.236,0,0,1,92.3-1.4L92.2,0H90.293V-17.25h2.078v6.435a4.212,4.212,0,0,1,3.47-1.561A4.116,4.116,0,0,1,99.317-10.7a7.442,7.442,0,0,1,1.263,4.582ZM98.5-6.177a5.614,5.614,0,0,0-.82-3.279,2.714,2.714,0,0,0-2.358-1.157A3.05,3.05,0,0,0,92.371-8.7v5.256a3.136,3.136,0,0,0,2.976,1.909A2.7,2.7,0,0,0,97.671-2.7,5.97,5.97,0,0,0,98.5-6.177ZM105.454,0h-2.078V-12.151h2.078Zm-2.246-15.375a1.24,1.24,0,0,1,.309-.854,1.16,1.16,0,0,1,.915-.348,1.178,1.178,0,0,1,.921.348,1.227,1.227,0,0,1,.314.854,1.187,1.187,0,0,1-.314.842,1.2,1.2,0,0,1-.921.337,1.18,1.18,0,0,1-.915-.337A1.2,1.2,0,0,1,103.208-15.375ZM111.036,0h-2.078V-17.25h2.078Zm5.582,0H114.54V-12.151h2.078Zm-2.246-15.375a1.24,1.24,0,0,1,.309-.854,1.16,1.16,0,0,1,.915-.348,1.178,1.178,0,0,1,.921.348,1.227,1.227,0,0,1,.314.854,1.187,1.187,0,0,1-.314.842,1.2,1.2,0,0,1-.921.337,1.18,1.18,0,0,1-.915-.337A1.2,1.2,0,0,1,114.371-15.375Zm5.065,9.2a7.118,7.118,0,0,1,1.325-4.5,4.191,4.191,0,0,1,3.47-1.7,4.214,4.214,0,0,1,3.38,1.46V-17.25h2.078V0H127.78l-.1-1.3a4.231,4.231,0,0,1-3.47,1.527A4.15,4.15,0,0,1,120.767-1.5a7.2,7.2,0,0,1-1.331-4.515Zm2.078.236a5.39,5.39,0,0,0,.854,3.234,2.759,2.759,0,0,0,2.358,1.168,3.031,3.031,0,0,0,2.886-1.774V-8.895a3.054,3.054,0,0,0-2.864-1.718,2.772,2.772,0,0,0-2.381,1.179A5.934,5.934,0,0,0,121.514-5.941ZM140.415,0a4.364,4.364,0,0,1-.292-1.28,4.636,4.636,0,0,1-3.459,1.5,4.289,4.289,0,0,1-2.948-1.016,3.288,3.288,0,0,1-1.151-2.577,3.435,3.435,0,0,1,1.443-2.948,6.8,6.8,0,0,1,4.06-1.05h2.021v-.955a2.333,2.333,0,0,0-.651-1.735,2.618,2.618,0,0,0-1.92-.646,3.03,3.03,0,0,0-1.864.562,1.655,1.655,0,0,0-.752,1.359h-2.089a2.867,2.867,0,0,1,.646-1.758,4.407,4.407,0,0,1,1.752-1.342,5.894,5.894,0,0,1,2.431-.494,4.8,4.8,0,0,1,3.291,1.05,3.788,3.788,0,0,1,1.235,2.892v5.593a6.838,6.838,0,0,0,.427,2.662V0Zm-3.448-1.583a3.651,3.651,0,0,0,1.853-.505A3.057,3.057,0,0,0,140.089-3.4V-5.9H138.46q-3.818,0-3.818,2.235a1.891,1.891,0,0,0,.651,1.527A2.5,2.5,0,0,0,136.967-1.583Zm7.951-4.593a7.118,7.118,0,0,1,1.325-4.5,4.191,4.191,0,0,1,3.47-1.7,4.214,4.214,0,0,1,3.38,1.46V-17.25h2.078V0h-1.909l-.1-1.3a4.231,4.231,0,0,1-3.47,1.527A4.15,4.15,0,0,1,146.249-1.5a7.2,7.2,0,0,1-1.331-4.515ZM147-5.941a5.39,5.39,0,0,0,.854,3.234,2.759,2.759,0,0,0,2.358,1.168,3.031,3.031,0,0,0,2.886-1.774V-8.895a3.054,3.054,0,0,0-2.864-1.718,2.772,2.772,0,0,0-2.381,1.179A5.934,5.934,0,0,0,147-5.941Z" transform="translate(659.044 593.061)" fill="#fff"/>
    <path id="Trazado_838071" data-name="Trazado 838071" d="M13.926-5.188a6.016,6.016,0,0,1-1.915,4A6.275,6.275,0,0,1,7.727.225,5.762,5.762,0,0,1,3.083-1.853,8.359,8.359,0,0,1,1.336-7.412V-8.984a9.317,9.317,0,0,1,.814-4.009A6.082,6.082,0,0,1,4.458-15.65a6.426,6.426,0,0,1,3.459-.927A5.909,5.909,0,0,1,12.1-15.122,6.088,6.088,0,0,1,13.926-11.1H11.758a4.7,4.7,0,0,0-1.219-2.839,3.687,3.687,0,0,0-2.622-.879,3.858,3.858,0,0,0-3.24,1.529A7.017,7.017,0,0,0,3.5-8.935V-7.35A7.214,7.214,0,0,0,4.616-3.112,3.592,3.592,0,0,0,7.727-1.539a4.149,4.149,0,0,0,2.757-.814,4.518,4.518,0,0,0,1.275-2.836Zm2.066-1a7.177,7.177,0,0,1,.7-3.212,5.236,5.236,0,0,1,1.954-2.2,5.319,5.319,0,0,1,2.858-.775,5.124,5.124,0,0,1,4.015,1.718,6.611,6.611,0,0,1,1.533,4.571v.146a7.24,7.24,0,0,1-.679,3.184,5.159,5.159,0,0,1-1.943,2.2,5.38,5.38,0,0,1-2.9.786,5.112,5.112,0,0,1-4-1.718,6.577,6.577,0,0,1-1.533-4.548Zm2.089.247A5.2,5.2,0,0,0,19.019-2.7a3,3,0,0,0,2.51,1.224,2.983,2.983,0,0,0,2.516-1.241,5.685,5.685,0,0,0,.932-3.476,5.189,5.189,0,0,0-.949-3.24,3.017,3.017,0,0,0-2.521-1.241,2.983,2.983,0,0,0-2.482,1.224A5.642,5.642,0,0,0,18.081-5.941Zm13.533-6.21L31.67-10.8a4.488,4.488,0,0,1,3.6-1.572,3.474,3.474,0,0,1,3.47,1.954,4.6,4.6,0,0,1,1.578-1.415,4.66,4.66,0,0,1,2.3-.539q4,0,4.065,4.234V0H44.607V-8.019a2.79,2.79,0,0,0-.6-1.948,2.621,2.621,0,0,0-2-.646,2.755,2.755,0,0,0-1.92.691,2.8,2.8,0,0,0-.887,1.859V0H37.117V-7.962a2.318,2.318,0,0,0-2.594-2.65,2.78,2.78,0,0,0-2.8,1.741V0H29.648V-12.151Zm28.469,6.21a7.276,7.276,0,0,1-1.269,4.47,4.067,4.067,0,0,1-3.437,1.7,4.456,4.456,0,0,1-3.481-1.4V4.672H49.818V-12.151h1.9l.1,1.348a4.28,4.28,0,0,1,3.526-1.572,4.144,4.144,0,0,1,3.465,1.651,7.355,7.355,0,0,1,1.275,4.593Zm-2.078-.236a5.369,5.369,0,0,0-.876-3.246,2.822,2.822,0,0,0-2.4-1.19A3.054,3.054,0,0,0,51.9-8.939v5.806a3.06,3.06,0,0,0,2.853,1.662,2.809,2.809,0,0,0,2.375-1.185A5.861,5.861,0,0,0,58.005-6.177Zm10.59-4.11a6.226,6.226,0,0,0-1.022-.079A2.738,2.738,0,0,0,64.8-8.625V0H62.722V-12.151h2.021l.034,1.4a3.235,3.235,0,0,1,2.9-1.628,2.123,2.123,0,0,1,.921.157Zm1.134,4.1a7.177,7.177,0,0,1,.7-3.212,5.236,5.236,0,0,1,1.954-2.2,5.319,5.319,0,0,1,2.858-.775,5.124,5.124,0,0,1,4.015,1.718,6.611,6.611,0,0,1,1.533,4.571v.146a7.24,7.24,0,0,1-.679,3.184,5.159,5.159,0,0,1-1.943,2.2,5.38,5.38,0,0,1-2.9.786,5.112,5.112,0,0,1-4-1.718A6.577,6.577,0,0,1,69.73-6.042Zm2.089.247A5.2,5.2,0,0,0,72.757-2.7a3,3,0,0,0,2.51,1.224,2.983,2.983,0,0,0,2.516-1.241,5.685,5.685,0,0,0,.932-3.476,5.189,5.189,0,0,0-.949-3.24,3.017,3.017,0,0,0-2.521-1.241,2.983,2.983,0,0,0-2.482,1.224A5.642,5.642,0,0,0,71.819-5.941Zm21.866,0A7.225,7.225,0,0,1,92.4-1.466,4.091,4.091,0,0,1,88.968.225,4.236,4.236,0,0,1,85.408-1.4l-.1,1.4H83.4V-17.25h2.078v6.435a4.212,4.212,0,0,1,3.47-1.561A4.116,4.116,0,0,1,92.421-10.7a7.442,7.442,0,0,1,1.263,4.582Zm-2.078-.236a5.614,5.614,0,0,0-.82-3.279,2.714,2.714,0,0,0-2.358-1.157A3.05,3.05,0,0,0,85.475-8.7v5.256a3.136,3.136,0,0,0,2.976,1.909A2.7,2.7,0,0,0,90.776-2.7,5.97,5.97,0,0,0,91.607-6.177ZM103.8,0a4.364,4.364,0,0,1-.292-1.28,4.636,4.636,0,0,1-3.459,1.5A4.289,4.289,0,0,1,97.1-.792a3.288,3.288,0,0,1-1.151-2.577A3.435,3.435,0,0,1,97.4-6.317a6.8,6.8,0,0,1,4.06-1.05h2.021v-.955a2.333,2.333,0,0,0-.651-1.735,2.618,2.618,0,0,0-1.92-.646,3.03,3.03,0,0,0-1.864.562,1.655,1.655,0,0,0-.752,1.359H96.2a2.867,2.867,0,0,1,.646-1.758A4.407,4.407,0,0,1,98.6-11.882a5.894,5.894,0,0,1,2.431-.494,4.8,4.8,0,0,1,3.291,1.05,3.788,3.788,0,0,1,1.235,2.892v5.593a6.838,6.838,0,0,0,.427,2.662V0Zm-3.448-1.583a3.651,3.651,0,0,0,1.853-.505A3.057,3.057,0,0,0,103.478-3.4V-5.9h-1.628q-3.818,0-3.818,2.235a1.891,1.891,0,0,0,.651,1.527A2.5,2.5,0,0,0,100.355-1.583Zm10.422-10.568.067,1.527a4.428,4.428,0,0,1,3.639-1.752q3.852,0,3.886,4.346V0h-2.078V-8.041a2.8,2.8,0,0,0-.6-1.943,2.408,2.408,0,0,0-1.836-.629,3,3,0,0,0-1.774.539,3.661,3.661,0,0,0-1.19,1.415V0h-2.078V-12.151Zm13.544-2.942v2.942h2.269v1.606h-2.269V-3a1.687,1.687,0,0,0,.3,1.1,1.276,1.276,0,0,0,1.033.365,5.03,5.03,0,0,0,.988-.135V0a6.059,6.059,0,0,1-1.595.223,2.587,2.587,0,0,1-2.1-.842,3.618,3.618,0,0,1-.708-2.392v-7.536h-2.212v-1.606h2.212v-2.942ZM134.058.225A5.309,5.309,0,0,1,130.038-1.4a6.023,6.023,0,0,1-1.55-4.341v-.382a7.292,7.292,0,0,1,.691-3.229,5.388,5.388,0,0,1,1.932-2.224,4.857,4.857,0,0,1,2.69-.8,4.551,4.551,0,0,1,3.684,1.561,6.759,6.759,0,0,1,1.314,4.47v.865h-8.232a4.319,4.319,0,0,0,1.05,2.9,3.3,3.3,0,0,0,2.555,1.106,3.619,3.619,0,0,0,1.864-.449,4.684,4.684,0,0,0,1.336-1.19l1.269.988A5.1,5.1,0,0,1,134.058.225ZM133.8-10.669a2.771,2.771,0,0,0-2.111.915,4.449,4.449,0,0,0-1.056,2.566h6.087v-.157a3.957,3.957,0,0,0-.854-2.454A2.609,2.609,0,0,0,133.8-10.669Zm14.476,7.446a1.529,1.529,0,0,0-.635-1.308,6.108,6.108,0,0,0-2.212-.8,10.46,10.46,0,0,1-2.5-.809,3.563,3.563,0,0,1-1.37-1.123,2.686,2.686,0,0,1-.444-1.55,3.152,3.152,0,0,1,1.263-2.527,4.934,4.934,0,0,1,3.229-1.033,5.077,5.077,0,0,1,3.352,1.067,3.389,3.389,0,0,1,1.286,2.729h-2.089a1.876,1.876,0,0,0-.724-1.471,2.714,2.714,0,0,0-1.825-.618,2.841,2.841,0,0,0-1.774.494,1.555,1.555,0,0,0-.64,1.292,1.26,1.26,0,0,0,.6,1.134,7.323,7.323,0,0,0,2.151.73,11.206,11.206,0,0,1,2.521.831,3.678,3.678,0,0,1,1.432,1.162,2.858,2.858,0,0,1,.466,1.656,3.11,3.11,0,0,1-1.3,2.611,5.464,5.464,0,0,1-3.38.983,6.119,6.119,0,0,1-2.583-.517,4.2,4.2,0,0,1-1.758-1.443,3.478,3.478,0,0,1-.635-2h2.078a2.151,2.151,0,0,0,.837,1.656,3.246,3.246,0,0,0,2.061.612,3.35,3.35,0,0,0,1.892-.477A1.467,1.467,0,0,0,148.276-3.223Z" transform="translate(944.198 562.291)" fill="#fff"/>
    <path id="Trazado_838072" data-name="Trazado 838072" d="M4.065-1.763h7.749V0H1.9V-16.352H4.065ZM16.206,0H14.128V-12.151h2.078ZM13.959-15.375a1.24,1.24,0,0,1,.309-.854,1.16,1.16,0,0,1,.915-.348,1.178,1.178,0,0,1,.921.348,1.227,1.227,0,0,1,.314.854,1.187,1.187,0,0,1-.314.842,1.2,1.2,0,0,1-.921.337,1.18,1.18,0,0,1-.915-.337A1.2,1.2,0,0,1,13.959-15.375ZM29.817-5.941a7.225,7.225,0,0,1-1.28,4.475A4.091,4.091,0,0,1,25.1.225,4.236,4.236,0,0,1,21.54-1.4l-.1,1.4H19.53V-17.25h2.078v6.435a4.212,4.212,0,0,1,3.47-1.561A4.116,4.116,0,0,1,28.553-10.7a7.442,7.442,0,0,1,1.263,4.582Zm-2.078-.236a5.614,5.614,0,0,0-.82-3.279,2.714,2.714,0,0,0-2.358-1.157A3.05,3.05,0,0,0,21.607-8.7v5.256a3.136,3.136,0,0,0,2.976,1.909A2.7,2.7,0,0,0,26.908-2.7,5.97,5.97,0,0,0,27.739-6.177Zm10.568-4.11a6.226,6.226,0,0,0-1.022-.079,2.738,2.738,0,0,0-2.774,1.741V0H32.434V-12.151h2.021l.034,1.4a3.235,3.235,0,0,1,2.9-1.628,2.123,2.123,0,0,1,.921.157Zm1.134,4.1a7.177,7.177,0,0,1,.7-3.212A5.236,5.236,0,0,1,42.1-11.6a5.319,5.319,0,0,1,2.858-.775,5.124,5.124,0,0,1,4.015,1.718A6.611,6.611,0,0,1,50.5-6.087v.146a7.24,7.24,0,0,1-.679,3.184,5.159,5.159,0,0,1-1.943,2.2,5.38,5.38,0,0,1-2.9.786,5.112,5.112,0,0,1-4-1.718,6.577,6.577,0,0,1-1.533-4.548Zm2.089.247A5.2,5.2,0,0,0,42.468-2.7a3,3,0,0,0,2.51,1.224,2.983,2.983,0,0,0,2.516-1.241,5.685,5.685,0,0,0,.932-3.476,5.189,5.189,0,0,0-.949-3.24,3.017,3.017,0,0,0-2.521-1.241,2.983,2.983,0,0,0-2.482,1.224A5.642,5.642,0,0,0,41.53-5.941ZM60.184-3.223a1.529,1.529,0,0,0-.635-1.308,6.108,6.108,0,0,0-2.212-.8,10.46,10.46,0,0,1-2.5-.809,3.563,3.563,0,0,1-1.37-1.123,2.686,2.686,0,0,1-.444-1.55,3.152,3.152,0,0,1,1.263-2.527,4.934,4.934,0,0,1,3.229-1.033,5.077,5.077,0,0,1,3.352,1.067A3.389,3.389,0,0,1,62.149-8.58H60.061a1.876,1.876,0,0,0-.724-1.471,2.714,2.714,0,0,0-1.825-.618,2.841,2.841,0,0,0-1.774.494,1.555,1.555,0,0,0-.64,1.292,1.26,1.26,0,0,0,.6,1.134,7.323,7.323,0,0,0,2.151.73,11.206,11.206,0,0,1,2.521.831A3.678,3.678,0,0,1,61.8-5.026a2.858,2.858,0,0,1,.466,1.656,3.11,3.11,0,0,1-1.3,2.611,5.464,5.464,0,0,1-3.38.983A6.119,6.119,0,0,1,55-.292a4.2,4.2,0,0,1-1.758-1.443,3.478,3.478,0,0,1-.635-2h2.078a2.151,2.151,0,0,0,.837,1.656,3.246,3.246,0,0,0,2.061.612,3.35,3.35,0,0,0,1.892-.477A1.467,1.467,0,0,0,60.184-3.223Zm9.973-2.954a7.118,7.118,0,0,1,1.325-4.5,4.191,4.191,0,0,1,3.47-1.7,4.214,4.214,0,0,1,3.38,1.46V-17.25H80.41V0H78.5l-.1-1.3A4.231,4.231,0,0,1,74.93.225,4.15,4.15,0,0,1,71.488-1.5,7.2,7.2,0,0,1,70.157-6.02Zm2.078.236a5.39,5.39,0,0,0,.854,3.234,2.759,2.759,0,0,0,2.358,1.168,3.031,3.031,0,0,0,2.886-1.774V-8.895a3.054,3.054,0,0,0-2.864-1.718,2.772,2.772,0,0,0-2.381,1.179A5.934,5.934,0,0,0,72.234-5.941ZM88.676.225A5.309,5.309,0,0,1,84.655-1.4a6.023,6.023,0,0,1-1.55-4.341v-.382A7.292,7.292,0,0,1,83.8-9.349a5.388,5.388,0,0,1,1.932-2.224,4.857,4.857,0,0,1,2.69-.8A4.551,4.551,0,0,1,92.1-10.815a6.759,6.759,0,0,1,1.314,4.47v.865H85.183a4.319,4.319,0,0,0,1.05,2.9,3.3,3.3,0,0,0,2.555,1.106,3.619,3.619,0,0,0,1.864-.449,4.684,4.684,0,0,0,1.336-1.19l1.269.988A5.1,5.1,0,0,1,88.676.225Zm-.258-10.894a2.771,2.771,0,0,0-2.111.915A4.449,4.449,0,0,0,85.25-7.187h6.087v-.157A3.957,3.957,0,0,0,90.484-9.8,2.609,2.609,0,0,0,88.417-10.669Z" transform="translate(1247.198 562.291)"/>
    <path id="Trazado_838073" data-name="Trazado 838073" d="M1.067-6.177a7.118,7.118,0,0,1,1.325-4.5,4.191,4.191,0,0,1,3.47-1.7,4.214,4.214,0,0,1,3.38,1.46V-17.25H11.32V0H9.411l-.1-1.3A4.231,4.231,0,0,1,5.84.225,4.15,4.15,0,0,1,2.4-1.5,7.2,7.2,0,0,1,1.067-6.02Zm2.078.236A5.39,5.39,0,0,0,4-2.707,2.759,2.759,0,0,0,6.356-1.539,3.031,3.031,0,0,0,9.243-3.313V-8.895a3.054,3.054,0,0,0-2.864-1.718A2.772,2.772,0,0,0,4-9.434,5.934,5.934,0,0,0,3.145-5.941ZM19.586.225A5.309,5.309,0,0,1,15.565-1.4a6.023,6.023,0,0,1-1.55-4.341v-.382a7.292,7.292,0,0,1,.691-3.229,5.388,5.388,0,0,1,1.932-2.224,4.857,4.857,0,0,1,2.69-.8,4.551,4.551,0,0,1,3.684,1.561,6.759,6.759,0,0,1,1.314,4.47v.865H16.093a4.319,4.319,0,0,0,1.05,2.9A3.3,3.3,0,0,0,19.7-1.471a3.619,3.619,0,0,0,1.864-.449A4.684,4.684,0,0,0,22.9-3.111l1.269.988A5.1,5.1,0,0,1,19.586.225Zm-.258-10.894a2.771,2.771,0,0,0-2.111.915,4.449,4.449,0,0,0-1.056,2.566h6.087v-.157A3.957,3.957,0,0,0,21.394-9.8,2.609,2.609,0,0,0,19.328-10.669ZM37.3-1.471a2.993,2.993,0,0,0,1.943-.674A2.371,2.371,0,0,0,40.16-3.83h1.965a3.768,3.768,0,0,1-.719,1.988,4.734,4.734,0,0,1-1.769,1.5A5.1,5.1,0,0,1,37.3.225a5.006,5.006,0,0,1-3.948-1.656,6.6,6.6,0,0,1-1.466-4.531v-.348a7.316,7.316,0,0,1,.651-3.156,4.961,4.961,0,0,1,1.87-2.145,5.312,5.312,0,0,1,2.881-.764,4.873,4.873,0,0,1,3.4,1.224,4.375,4.375,0,0,1,1.443,3.178H40.16a2.863,2.863,0,0,0-.893-1.937,2.777,2.777,0,0,0-1.982-.758,2.908,2.908,0,0,0-2.454,1.14,5.353,5.353,0,0,0-.87,3.3v.393a5.247,5.247,0,0,0,.865,3.234A2.922,2.922,0,0,0,37.3-1.471Zm6.615-4.717a7.177,7.177,0,0,1,.7-3.212,5.236,5.236,0,0,1,1.954-2.2,5.319,5.319,0,0,1,2.858-.775,5.124,5.124,0,0,1,4.015,1.718,6.611,6.611,0,0,1,1.533,4.571v.146a7.24,7.24,0,0,1-.679,3.184,5.159,5.159,0,0,1-1.943,2.2,5.38,5.38,0,0,1-2.9.786,5.112,5.112,0,0,1-4-1.718,6.577,6.577,0,0,1-1.533-4.548ZM46-5.941A5.2,5.2,0,0,0,46.938-2.7a3,3,0,0,0,2.51,1.224,2.983,2.983,0,0,0,2.516-1.241A5.685,5.685,0,0,0,52.9-6.188a5.189,5.189,0,0,0-.949-3.24,3.017,3.017,0,0,0-2.521-1.241,2.983,2.983,0,0,0-2.482,1.224A5.642,5.642,0,0,0,46-5.941Zm13.544-6.21.067,1.527a4.428,4.428,0,0,1,3.639-1.752q3.852,0,3.886,4.346V0H65.058V-8.041a2.8,2.8,0,0,0-.6-1.943,2.408,2.408,0,0,0-1.836-.629,3,3,0,0,0-1.774.539,3.661,3.661,0,0,0-1.19,1.415V0H57.579V-12.151Zm13.544-2.942v2.942h2.269v1.606H73.088V-3a1.687,1.687,0,0,0,.3,1.1,1.276,1.276,0,0,0,1.033.365,5.03,5.03,0,0,0,.988-.135V0a6.059,6.059,0,0,1-1.595.223,2.587,2.587,0,0,1-2.1-.842A3.618,3.618,0,0,1,71.01-3.01v-7.536H68.8v-1.606H71.01v-2.942ZM85.284,0a4.364,4.364,0,0,1-.292-1.28,4.636,4.636,0,0,1-3.459,1.5A4.289,4.289,0,0,1,78.585-.792a3.288,3.288,0,0,1-1.151-2.577,3.435,3.435,0,0,1,1.443-2.948,6.8,6.8,0,0,1,4.06-1.05h2.021v-.955a2.333,2.333,0,0,0-.651-1.735,2.618,2.618,0,0,0-1.92-.646,3.03,3.03,0,0,0-1.864.562,1.655,1.655,0,0,0-.752,1.359H77.681a2.867,2.867,0,0,1,.646-1.758,4.407,4.407,0,0,1,1.752-1.342,5.894,5.894,0,0,1,2.431-.494,4.8,4.8,0,0,1,3.291,1.05,3.788,3.788,0,0,1,1.235,2.892v5.593A6.838,6.838,0,0,0,87.463-.18V0ZM81.836-1.583a3.651,3.651,0,0,0,1.853-.505A3.057,3.057,0,0,0,84.958-3.4V-5.9H83.33q-3.818,0-3.818,2.235a1.891,1.891,0,0,0,.651,1.527A2.5,2.5,0,0,0,81.836-1.583ZM100.58-5.941A7.225,7.225,0,0,1,99.3-1.466,4.091,4.091,0,0,1,95.863.225,4.236,4.236,0,0,1,92.3-1.4L92.2,0H90.293V-17.25h2.078v6.435a4.212,4.212,0,0,1,3.47-1.561A4.116,4.116,0,0,1,99.317-10.7a7.442,7.442,0,0,1,1.263,4.582ZM98.5-6.177a5.614,5.614,0,0,0-.82-3.279,2.714,2.714,0,0,0-2.358-1.157A3.05,3.05,0,0,0,92.371-8.7v5.256a3.136,3.136,0,0,0,2.976,1.909A2.7,2.7,0,0,0,97.671-2.7,5.97,5.97,0,0,0,98.5-6.177ZM105.454,0h-2.078V-12.151h2.078Zm-2.246-15.375a1.24,1.24,0,0,1,.309-.854,1.16,1.16,0,0,1,.915-.348,1.178,1.178,0,0,1,.921.348,1.227,1.227,0,0,1,.314.854,1.187,1.187,0,0,1-.314.842,1.2,1.2,0,0,1-.921.337,1.18,1.18,0,0,1-.915-.337A1.2,1.2,0,0,1,103.208-15.375ZM111.036,0h-2.078V-17.25h2.078Zm5.582,0H114.54V-12.151h2.078Zm-2.246-15.375a1.24,1.24,0,0,1,.309-.854,1.16,1.16,0,0,1,.915-.348,1.178,1.178,0,0,1,.921.348,1.227,1.227,0,0,1,.314.854,1.187,1.187,0,0,1-.314.842,1.2,1.2,0,0,1-.921.337,1.18,1.18,0,0,1-.915-.337A1.2,1.2,0,0,1,114.371-15.375Zm5.065,9.2a7.118,7.118,0,0,1,1.325-4.5,4.191,4.191,0,0,1,3.47-1.7,4.214,4.214,0,0,1,3.38,1.46V-17.25h2.078V0H127.78l-.1-1.3a4.231,4.231,0,0,1-3.47,1.527A4.15,4.15,0,0,1,120.767-1.5a7.2,7.2,0,0,1-1.331-4.515Zm2.078.236a5.39,5.39,0,0,0,.854,3.234,2.759,2.759,0,0,0,2.358,1.168,3.031,3.031,0,0,0,2.886-1.774V-8.895a3.054,3.054,0,0,0-2.864-1.718,2.772,2.772,0,0,0-2.381,1.179A5.934,5.934,0,0,0,121.514-5.941ZM140.415,0a4.364,4.364,0,0,1-.292-1.28,4.636,4.636,0,0,1-3.459,1.5,4.289,4.289,0,0,1-2.948-1.016,3.288,3.288,0,0,1-1.151-2.577,3.435,3.435,0,0,1,1.443-2.948,6.8,6.8,0,0,1,4.06-1.05h2.021v-.955a2.333,2.333,0,0,0-.651-1.735,2.618,2.618,0,0,0-1.92-.646,3.03,3.03,0,0,0-1.864.562,1.655,1.655,0,0,0-.752,1.359h-2.089a2.867,2.867,0,0,1,.646-1.758,4.407,4.407,0,0,1,1.752-1.342,5.894,5.894,0,0,1,2.431-.494,4.8,4.8,0,0,1,3.291,1.05,3.788,3.788,0,0,1,1.235,2.892v5.593a6.838,6.838,0,0,0,.427,2.662V0Zm-3.448-1.583a3.651,3.651,0,0,0,1.853-.505A3.057,3.057,0,0,0,140.089-3.4V-5.9H138.46q-3.818,0-3.818,2.235a1.891,1.891,0,0,0,.651,1.527A2.5,2.5,0,0,0,136.967-1.583Zm7.951-4.593a7.118,7.118,0,0,1,1.325-4.5,4.191,4.191,0,0,1,3.47-1.7,4.214,4.214,0,0,1,3.38,1.46V-17.25h2.078V0h-1.909l-.1-1.3a4.231,4.231,0,0,1-3.47,1.527A4.15,4.15,0,0,1,146.249-1.5a7.2,7.2,0,0,1-1.331-4.515ZM147-5.941a5.39,5.39,0,0,0,.854,3.234,2.759,2.759,0,0,0,2.358,1.168,3.031,3.031,0,0,0,2.886-1.774V-8.895a3.054,3.054,0,0,0-2.864-1.718,2.772,2.772,0,0,0-2.381,1.179A5.934,5.934,0,0,0,147-5.941Z" transform="translate(943.146 593.061)" fill="#fff"/>
    <path id="Trazado_838074" data-name="Trazado 838074" d="M6.446-1.471a2.993,2.993,0,0,0,1.943-.674A2.371,2.371,0,0,0,9.31-3.83h1.965a3.768,3.768,0,0,1-.719,1.988,4.734,4.734,0,0,1-1.769,1.5A5.1,5.1,0,0,1,6.446.225,5.006,5.006,0,0,1,2.5-1.432,6.6,6.6,0,0,1,1.033-5.963v-.348a7.316,7.316,0,0,1,.651-3.156,4.961,4.961,0,0,1,1.87-2.145,5.312,5.312,0,0,1,2.881-.764,4.873,4.873,0,0,1,3.4,1.224,4.375,4.375,0,0,1,1.443,3.178H9.31a2.863,2.863,0,0,0-.893-1.937,2.777,2.777,0,0,0-1.982-.758,2.908,2.908,0,0,0-2.454,1.14,5.353,5.353,0,0,0-.87,3.3v.393a5.247,5.247,0,0,0,.865,3.234A2.922,2.922,0,0,0,6.446-1.471Zm6.615-4.717a7.177,7.177,0,0,1,.7-3.212,5.236,5.236,0,0,1,1.954-2.2,5.319,5.319,0,0,1,2.858-.775,5.124,5.124,0,0,1,4.015,1.718,6.611,6.611,0,0,1,1.533,4.571v.146a7.24,7.24,0,0,1-.679,3.184A5.159,5.159,0,0,1,21.5-.562a5.38,5.38,0,0,1-2.9.786,5.112,5.112,0,0,1-4-1.718,6.577,6.577,0,0,1-1.533-4.548Zm2.089.247A5.2,5.2,0,0,0,16.088-2.7,3,3,0,0,0,18.6-1.471a2.983,2.983,0,0,0,2.516-1.241,5.685,5.685,0,0,0,.932-3.476,5.189,5.189,0,0,0-.949-3.24,3.017,3.017,0,0,0-2.521-1.241,2.983,2.983,0,0,0-2.482,1.224A5.642,5.642,0,0,0,15.15-5.941Zm13.544-6.21.067,1.527A4.428,4.428,0,0,1,32.4-12.376q3.852,0,3.886,4.346V0H34.208V-8.041a2.8,2.8,0,0,0-.6-1.943,2.408,2.408,0,0,0-1.836-.629A3,3,0,0,0,30-10.074a3.661,3.661,0,0,0-1.19,1.415V0H26.729V-12.151Zm13.544-2.942v2.942h2.269v1.606H42.238V-3a1.687,1.687,0,0,0,.3,1.1,1.276,1.276,0,0,0,1.033.365,5.03,5.03,0,0,0,.988-.135V0a6.059,6.059,0,0,1-1.595.223,2.587,2.587,0,0,1-2.1-.842A3.618,3.618,0,0,1,40.16-3.01v-7.536H37.948v-1.606H40.16v-2.942ZM54.434,0a4.364,4.364,0,0,1-.292-1.28,4.636,4.636,0,0,1-3.459,1.5A4.289,4.289,0,0,1,47.735-.792a3.288,3.288,0,0,1-1.151-2.577,3.435,3.435,0,0,1,1.443-2.948,6.8,6.8,0,0,1,4.06-1.05h2.021v-.955a2.333,2.333,0,0,0-.651-1.735,2.618,2.618,0,0,0-1.92-.646,3.03,3.03,0,0,0-1.864.562,1.655,1.655,0,0,0-.752,1.359H46.831a2.867,2.867,0,0,1,.646-1.758,4.407,4.407,0,0,1,1.752-1.342,5.894,5.894,0,0,1,2.431-.494,4.8,4.8,0,0,1,3.291,1.05,3.788,3.788,0,0,1,1.235,2.892v5.593A6.838,6.838,0,0,0,56.613-.18V0ZM50.986-1.583a3.651,3.651,0,0,0,1.853-.505A3.057,3.057,0,0,0,54.108-3.4V-5.9H52.48q-3.818,0-3.818,2.235a1.891,1.891,0,0,0,.651,1.527A2.5,2.5,0,0,0,50.986-1.583ZM69.73-5.941a7.225,7.225,0,0,1-1.28,4.475A4.091,4.091,0,0,1,65.013.225,4.236,4.236,0,0,1,61.453-1.4l-.1,1.4H59.443V-17.25h2.078v6.435a4.212,4.212,0,0,1,3.47-1.561A4.116,4.116,0,0,1,68.467-10.7,7.442,7.442,0,0,1,69.73-6.121Zm-2.078-.236a5.614,5.614,0,0,0-.82-3.279,2.714,2.714,0,0,0-2.358-1.157A3.05,3.05,0,0,0,61.521-8.7v5.256A3.136,3.136,0,0,0,64.5-1.539,2.7,2.7,0,0,0,66.821-2.7,5.97,5.97,0,0,0,67.652-6.177ZM74.6,0H72.526V-12.151H74.6ZM72.358-15.375a1.24,1.24,0,0,1,.309-.854,1.16,1.16,0,0,1,.915-.348,1.178,1.178,0,0,1,.921.348,1.227,1.227,0,0,1,.314.854,1.187,1.187,0,0,1-.314.842,1.2,1.2,0,0,1-.921.337,1.18,1.18,0,0,1-.915-.337A1.2,1.2,0,0,1,72.358-15.375ZM80.186,0H78.108V-17.25h2.078Zm5.582,0H83.689V-12.151h2.078ZM83.521-15.375a1.24,1.24,0,0,1,.309-.854,1.16,1.16,0,0,1,.915-.348,1.178,1.178,0,0,1,.921.348,1.227,1.227,0,0,1,.314.854,1.187,1.187,0,0,1-.314.842,1.2,1.2,0,0,1-.921.337,1.18,1.18,0,0,1-.915-.337A1.2,1.2,0,0,1,83.521-15.375Zm5.065,9.2a7.118,7.118,0,0,1,1.325-4.5,4.191,4.191,0,0,1,3.47-1.7,4.214,4.214,0,0,1,3.38,1.46V-17.25h2.078V0H96.93l-.1-1.3A4.231,4.231,0,0,1,93.359.225,4.15,4.15,0,0,1,89.917-1.5,7.2,7.2,0,0,1,88.586-6.02Zm2.078.236a5.39,5.39,0,0,0,.854,3.234,2.759,2.759,0,0,0,2.358,1.168,3.031,3.031,0,0,0,2.886-1.774V-8.895A3.054,3.054,0,0,0,93.9-10.613a2.772,2.772,0,0,0-2.381,1.179A5.934,5.934,0,0,0,90.664-5.941ZM109.564,0a4.364,4.364,0,0,1-.292-1.28,4.636,4.636,0,0,1-3.459,1.5,4.289,4.289,0,0,1-2.948-1.016,3.288,3.288,0,0,1-1.151-2.577,3.435,3.435,0,0,1,1.443-2.948,6.8,6.8,0,0,1,4.06-1.05h2.021v-.955a2.333,2.333,0,0,0-.651-1.735,2.618,2.618,0,0,0-1.92-.646,3.03,3.03,0,0,0-1.864.562,1.655,1.655,0,0,0-.752,1.359h-2.089a2.867,2.867,0,0,1,.646-1.758,4.407,4.407,0,0,1,1.752-1.342,5.894,5.894,0,0,1,2.431-.494,4.8,4.8,0,0,1,3.291,1.05,3.788,3.788,0,0,1,1.235,2.892v5.593a6.838,6.838,0,0,0,.427,2.662V0Zm-3.448-1.583a3.651,3.651,0,0,0,1.853-.505A3.057,3.057,0,0,0,109.239-3.4V-5.9H107.61q-3.818,0-3.818,2.235a1.891,1.891,0,0,0,.651,1.527A2.5,2.5,0,0,0,106.117-1.583Zm7.951-4.593a7.118,7.118,0,0,1,1.325-4.5,4.191,4.191,0,0,1,3.47-1.7,4.214,4.214,0,0,1,3.38,1.46V-17.25h2.078V0h-1.909l-.1-1.3a4.231,4.231,0,0,1-3.47,1.527A4.15,4.15,0,0,1,115.4-1.5a7.2,7.2,0,0,1-1.331-4.515Zm2.078.236A5.39,5.39,0,0,0,117-2.707a2.759,2.759,0,0,0,2.358,1.168,3.031,3.031,0,0,0,2.886-1.774V-8.895a3.054,3.054,0,0,0-2.864-1.718A2.772,2.772,0,0,0,117-9.434,5.934,5.934,0,0,0,116.146-5.941Z" transform="translate(1231.146 593.061)"/>
  </g>
</svg>
