<svg xmlns="http://www.w3.org/2000/svg" xmlns:xlink="http://www.w3.org/1999/xlink" width="138" height="138" viewBox="0 0 138 138">
  <defs>
    <filter id="Elipse_8805" x="0" y="0" width="138" height="138" filterUnits="userSpaceOnUse">
      <feOffset dy="3" input="SourceAlpha"/>
      <feGaussianBlur stdDeviation="3" result="blur"/>
      <feFlood flood-opacity="0.161"/>
      <feComposite operator="in" in2="blur"/>
      <feComposite in="SourceGraphic"/>
    </filter>
    <clipPath id="clip-path">
      <rect id="Rectángulo_372146" data-name="Rectángulo 372146" width="60.714" height="62.302" fill="none"/>
    </clipPath>
  </defs>
  <g id="Grupo_1083485" data-name="Grupo 1083485" transform="translate(-941 -769)">
    <g transform="matrix(1, 0, 0, 1, 941, 769)" filter="url(#Elipse_8805)">
      <g id="Elipse_8805-2" data-name="Elipse 8805" transform="translate(9 6)" fill="#fff" stroke="#12263f" stroke-width="4">
        <circle cx="60" cy="60" r="60" stroke="none"/>
        <circle cx="60" cy="60" r="58" fill="none"/>
      </g>
    </g>
    <g id="Grupo_1043332" data-name="Grupo 1043332" transform="translate(984.633 804.849)">
      <g id="Grupo_1043331" data-name="Grupo 1043331" clip-path="url(#clip-path)">
        <path id="Trazado_787597" data-name="Trazado 787597" d="M30.37,3.027c.467-.083.759-.522,1.291-.545.612-.026.891.411,1.26.706a15.265,15.265,0,0,1,1.255,1.236,1.561,1.561,0,0,1,.3,1.955c-.3.46-.478.993-.758,1.466-.131.222.028.378.084.488a8.6,8.6,0,0,1,.468,1.083c.063.182.172.228.34.281.71.224,1.413.474,2.117.716a.835.835,0,0,1,.534.9c.008.689.027,1.38-.006,2.067-.021.426.114.545.54.541,2.493-.02,4.986.009,7.479-.016a3.557,3.557,0,0,1,3.732,3.374c-.012.471.06.963.061,1.445,0,5.129.009,10.257-.009,15.386,0,.486.095.609.611.648a12.215,12.215,0,0,1,4.373,1.14,11.977,11.977,0,0,1,3.848,2.954A11.66,11.66,0,0,1,60.547,44.2a11.248,11.248,0,0,1,.228,2.988A11.589,11.589,0,0,1,58.4,53.84a11.792,11.792,0,0,1-6.61,4.407,11.169,11.169,0,0,1-4,.37,12.419,12.419,0,0,1-6.054-2.327A8.418,8.418,0,0,1,39.7,54.363a.554.554,0,0,0-.486-.3c-2.59.01-5.179.006-7.817.006a8.141,8.141,0,0,0,1.122,1.913c1.02,1.461,1.921,3,2.938,4.459a.722.722,0,0,0,.675.339,4.228,4.228,0,0,1,1.127.073.657.657,0,0,1,.535.73.731.731,0,0,1-.624.757,1.859,1.859,0,0,1-.485.009H12.359c-.587,0-1.076-.356-1.081-.786a.916.916,0,0,1,1.082-.782,1.6,1.6,0,0,0,1.736-.9c1.176-1.942,2.448-3.826,3.731-5.81h-.679c-4.54,0-9.081-.023-13.621.007A3.54,3.54,0,0,1,.2,51.164c0-.044-.071-.083-.109-.124v-.365C.3,50.528.2,50.3.2,50.118Q.212,34.132.2,18.146c0-.187.1-.41-.118-.558v-.851a10.077,10.077,0,0,1,.537-1.188A3.547,3.547,0,0,1,3.96,13.913c2.493.013,4.985,0,7.478.012.387,0,.549-.084.52-.5-.033-.484-.008-.972-.008-1.459,0-1.47-.015-1.528,1.4-1.895.941-.243,1.686-.542,1.935-1.61a1.068,1.068,0,0,0,0-.833q-.409-.759-.81-1.522a1.035,1.035,0,0,1,.218-1.4c.628-.573,1.231-1.178,1.8-1.806a1.075,1.075,0,0,1,1.337-.292,3.324,3.324,0,0,1,.8.385,1.831,1.831,0,0,0,2.141.252,1.783,1.783,0,0,0,.981-1.155c.217-.7.226-1.541.945-2.021h3.771a4.188,4.188,0,0,1,.89,1.963c.156.625.383,1.087,1.072,1.212.205.037.361.24.594.235a.371.371,0,0,0,.607-.1l.585-.263.141-.089M17.461,30.859a5.68,5.68,0,0,0-2.623-.011c-.01.221-.028.443-.028.664q0,5.608,0,11.216c0,1.166,0,1.166,1.207,1.11a2.822,2.822,0,0,0,1.354-.088c.117-.051.109-.156.109-.255q-.008-6.318-.018-12.636m8.4-.012c-.124-.2-.325-.114-.491-.116-.682-.006-1.364,0-2.045.008-.236.163-.132.408-.132.615q-.01,5.9,0,11.8c0,.2-.061.408.085.586.4.268.834.077,1.251.107.45-.013.913.136,1.343-.111a.158.158,0,0,0,.053.027c.013,0,.039-.015.04-.026a2.574,2.574,0,0,0,.026-.3q0-6.071,0-12.142c0-.154.054-.33-.112-.445l-.016-.005m5.881,0c-.01.221-.028.443-.029.664q0,5.606,0,11.212c0,1.168,0,1.168,1.205,1.113.323.009.647,0,.97.029.371.028.5-.128.5-.495q-.022-6.257-.025-12.514a5.642,5.642,0,0,0-2.616-.009M35,29.148c.078-.012.17-.024.15-.129a.264.264,0,0,0-.29-.236l-2.3-2.067a.218.218,0,0,0-.248-.245c-1.177-.865-2.217-1.893-3.335-2.828-1.133-.948-2.245-1.922-3.366-2.884-.273-.239-.539-.486-.821-.713-.136-.11-.261-.192-.461-.013q-1.885,1.689-3.8,3.34c-1.353,1.167-2.755,2.281-4.069,3.49a24.56,24.56,0,0,0-2.538,2.3,6.022,6.022,0,0,0,1.865.086q9.4,0,18.794.008c.134,0,.288.046.388-.1ZM22.343,13.925l.131-.007,5.7-.012c.079.017.112-.017.1-.1a8.8,8.8,0,0,0,.147-1.061,3.8,3.8,0,0,0-4.254-3.777,3.117,3.117,0,0,0-2.543,1.3,4.1,4.1,0,0,0-.872,3.024c.029.475.184.7.68.644.3-.031.606-.015.909-.02M38.729,48.973c.077.184.074.383.138.577a10.775,10.775,0,0,0,2.748,4.476,9.922,9.922,0,0,0,5.041,2.756,7.249,7.249,0,0,0,3.525.2A10.671,10.671,0,0,0,56.775,53.3a10.051,10.051,0,0,0,2.354-7.85,10.3,10.3,0,0,0-9.22-9.1,7.431,7.431,0,0,0-3.356.231,8.859,8.859,0,0,0-5.113,2.777,9.679,9.679,0,0,0-2.834,5.554,7.733,7.733,0,0,0-.119,2.675,3.318,3.318,0,0,1,.226,1.265l-.122.071.138.052m-8.752-18.2-2.373.011c-.285.064-.135.294-.135.43q-.016,6.062,0,12.123c0,.162-.1.371.127.481l2.41.012c.091.029.129,0,.118-.1q0-6.441,0-12.882c-.012-.093-.057-.126-.145-.079m-8.3,12.953q.013-6.276.032-12.553c0-.34-.144-.4-.436-.4-.687.011-1.375,0-2.062,0-.089-.046-.133-.015-.141.081q0,6.439,0,12.879c-.012.088.019.129.112.1l2.415-.017c.078.015.106-.012.075-.089M3.374,52.446l.72.018H4.35q9.149.006,18.3.012,7.751,0,15.5-.012c.091.035.12,0,.111-.092a4.532,4.532,0,0,0-.589-1.113q0-.055,0-.109c.037-.134-.1-.222-.1-.33-.032-.789-.475-.893-1.181-.89-6.667.029-13.335.017-20,.017q-3.313,0-6.627,0c-.728,0-1.026-.228-1.03-.774,0-.58.288-.805,1.056-.808.507,0,1.013,0,1.52,0q12.555,0,25.109.01c.518,0,.586-.132.5-.62a4.167,4.167,0,0,1-.05-1.741c.171-.65-.112-.583-.535-.583q-12.038.009-24.076,0c-.122,0-.243,0-.365,0-.441-.019-.819-.326-.78-.668s.156-.9.75-.9a4.541,4.541,0,0,1,.668,0c.556.076.73-.127.725-.7-.026-3.587-.01-7.175-.017-10.762,0-.5.206-1.126-.088-1.467-.25-.29-.878-.058-1.338-.09a.978.978,0,0,1-.972-.647c-.142-.416.12-.688.39-.93.612-.548,1.234-1.084,1.858-1.617,1.932-1.652,3.874-3.292,5.8-4.952,1.728-1.491,3.439-3,5.158-4.5l.257-.091c.294-.027.58-.1.851.134q2.854,2.5,5.723,4.975l.1.094,2.573,2.217.1.094c.373.18.57.556.884.8,1.2.939,2.345,1.948,3.462,2.984.549.509.35,1.12-.41,1.363l-.18.01H36.121c-.089-.046-.133-.015-.141.081q-.006,6.23,0,12.46c0,.183-.2.568.239.532.372-.03.878.266,1.079-.321a14.253,14.253,0,0,1,.477-1.516,12.355,12.355,0,0,1,3.636-4.746,11.629,11.629,0,0,1,3.6-1.94c.8-.244,1.619-.335,2.409-.58.181-.164.1-.38.1-.572q.007-8.013,0-16.027c0-.191.08-.408-.1-.572a1.762,1.762,0,0,0-.294-1.138c-.351-.812-1.14-.919-1.9-.919q-20.076-.014-40.152-.005c-.283,0-.566.015-.849.023a2.062,2.062,0,0,0-2.466,1.39c-.194.468.019.859.018,1.283q-.024,15.873,0,31.746a3.136,3.136,0,0,0-.058.87,2.078,2.078,0,0,0,1.53,1.643l.126-.028m14.111,8.3H33.709c-.143-.242-.234-.413-.341-.574-.433-.647-.882-1.283-1.3-1.938-.823-1.277-1.631-2.563-2.445-3.846a.637.637,0,0,0-.595-.329c-2.47.018-4.94.023-7.41.032-.383-.01-.77.009-1.148-.038a1,1,0,0,0-1.07.576c-.833,1.334-1.711,2.641-2.57,3.958-.375.575-.741,1.156-1.127,1.724-.253.372-.143.48.271.459.5-.025,1.009-.018,1.514-.026m1.806-46.815a2.5,2.5,0,0,1-.1-.406A5.632,5.632,0,0,1,20.93,8.785a5.177,5.177,0,0,1,4.9-1.293,4.854,4.854,0,0,1,3.7,3.257,4.206,4.206,0,0,1,.37,2.828c-.113.377.173.359.429.359,1.378,0,2.755,0,4.133,0,1.178,0,1.178,0,1.178-1.157,0-1.07.014-1.129-1.019-1.38s-1.867-.636-1.949-1.857c0-.067-.1-.124-.136-.194a2.05,2.05,0,0,1-.054-2.5c.78-1.064.666-1.147-.324-2.138a1.425,1.425,0,0,1-.17-.173.5.5,0,0,0-.791-.14c-.431.28-.9.5-1.353.749A1.08,1.08,0,0,1,28.7,5.142a7.31,7.31,0,0,0-1.687-.7,1.024,1.024,0,0,1-.7-.652c-.26-.586-.376-1.214-.627-1.8-.1-.229-.151-.4-.437-.337-.578.133-1.231-.278-1.756.242a.094.094,0,0,0-.031.052,5.891,5.891,0,0,1-.3.961c-.158.633-.238,1.358-1.094,1.548a4.118,4.118,0,0,0-1.323.5,1.63,1.63,0,0,1-1.973-.093c-1.228-.791-1.244-.766-2.284.274a2.238,2.238,0,0,1-.173.17c-.245.2-.327.348-.1.677A12.23,12.23,0,0,1,17,7.516a.985.985,0,0,1,.008.909c-.27.614-.487,1.25-.749,1.868a.831.831,0,0,1-.33.479,6.174,6.174,0,0,1-1.728.7c-.523.1-.707.341-.641.856s-.217,1.184.119,1.514c.307.3.964.08,1.466.084,1.373.011,2.746,0,4.145,0" transform="translate(-0.076 -0.063)" fill="#262626"/>
        <path id="Trazado_787598" data-name="Trazado 787598" d="M22.634.009c-.719.481-.728,1.317-.945,2.021a1.783,1.783,0,0,1-.981,1.155,1.831,1.831,0,0,1-2.141-.252,3.329,3.329,0,0,0-.8-.385,1.075,1.075,0,0,0-1.337.292c-.572.629-1.176,1.233-1.8,1.806a1.035,1.035,0,0,0-.218,1.4q.4.764.81,1.522a1.068,1.068,0,0,1,0,.833c-.249,1.069-.994,1.367-1.935,1.61-1.418.367-1.4.425-1.4,1.895,0,.486-.025.975.008,1.459.028.414-.133.5-.52.5-2.492-.017-4.985,0-7.478-.012A3.547,3.547,0,0,0,.548,15.486a10.086,10.086,0,0,0-.537,1.188Q.011,8.567,0,.46C0,.069.1,0,.471,0Q11.552.018,22.634.009" transform="translate(0 0)" fill="#fff"/>
        <path id="Trazado_787599" data-name="Trazado 787599" d="M.087,143.744c.214.148.117.371.118.558q.008,15.986,0,31.972c0,.187.1.41-.118.558Z" transform="translate(-0.076 -126.219)" fill="#717272"/>
        <path id="Trazado_787600" data-name="Trazado 787600" d="M341.169,63.078a1.252,1.252,0,0,1,.585-.115,18.914,18.914,0,0,1,5.783.484,8.923,8.923,0,0,1,3.729,2.074A9.507,9.507,0,0,1,352.9,67.3a13.7,13.7,0,0,1,.982,2.048,7.829,7.829,0,0,1,.7,2.178,14.116,14.116,0,0,1,.184,1.418c.024,1.6.01,3.2.012,4.8a.938.938,0,0,1-.6.944.708.708,0,0,1-.811-.219c-.25-.231-.206-.555-.207-.851-.006-1.378,0-2.755,0-4.133a8.716,8.716,0,0,0-2.888-6.742,8.965,8.965,0,0,0-3.182-1.759c-1.718-.594-3.482-.3-5.227-.376-.455-.021-.854-.035-1.068-.569-.162-.4.079-.607.241-.873l.134-.092" transform="translate(-299.197 -55.259)" fill="#262626"/>
        <path id="Trazado_787601" data-name="Trazado 787601" d="M441.906,212.78a3.314,3.314,0,0,1,.007-.6c.063-.337.191-.679.593-.706s.878-.112,1.019.475a3.862,3.862,0,0,1,.017,1.731.789.789,0,0,1-.924.593c-.508-.059-.6-.46-.7-.826a2.507,2.507,0,0,1-.011-.663" transform="translate(-388.012 -185.669)" fill="#262626"/>
        <path id="Trazado_787602" data-name="Trazado 787602" d="M238.138,27a.371.371,0,0,1-.607.1c.172-.217.4-.092.607-.1" transform="translate(-208.571 -23.687)" fill="#282828"/>
        <path id="Trazado_787603" data-name="Trazado 787603" d="M247.454,24.214l-.141.089c.027-.061.049-.131.141-.089" transform="translate(-217.16 -21.25)" fill="#282828"/>
        <path id="Trazado_787604" data-name="Trazado 787604" d="M343.287,64.071l-.134.092c.021-.065.047-.122.134-.092" transform="translate(-301.316 -56.252)" fill="#282828"/>
        <path id="Trazado_787605" data-name="Trazado 787605" d="M48.494,129.426c-1.719,1.5-3.429,3.014-5.158,4.5-1.925,1.66-3.866,3.3-5.8,4.952-.624.534-1.247,1.069-1.858,1.617-.27.242-.531.513-.389.93a.978.978,0,0,0,.972.647c.46.032,1.088-.2,1.338.09.294.341.086.966.088,1.467.008,3.587-.009,7.175.017,10.762,0,.575-.169.779-.725.7a4.539,4.539,0,0,0-.668,0c-.593.008-.71.556-.75.9s.339.649.78.668c.121.005.243,0,.365,0q12.038,0,24.076,0c.423,0,.706-.067.535.583a4.165,4.165,0,0,0,.05,1.741c.089.488.021.621-.5.62q-12.555-.022-25.109-.01c-.507,0-1.013,0-1.52,0-.767,0-1.06.228-1.056.808,0,.547.3.774,1.03.774q3.313,0,6.627,0c6.667,0,13.335.012,20-.017.707,0,1.149.1,1.181.89,0,.108.14.2.1.33l-.087.092.092.017a4.532,4.532,0,0,1,.589,1.113l-.111.092q-7.751.006-15.5.012-9.149,0-18.3-.012l-.248-.1a3.544,3.544,0,0,1-.618-2.283q.019-16.245,0-32.49a2.871,2.871,0,0,1,.737-2.047c.283-.008.566-.023.849-.023q20.076,0,40.152.005c.762,0,1.551.107,1.9.919a1.761,1.761,0,0,1,.294,1.138q0,8.585,0,17.17c-.79.245-1.613.336-2.409.58a11.629,11.629,0,0,0-3.6,1.94,12.354,12.354,0,0,0-3.636,4.745,14.28,14.28,0,0,0-.477,1.516c-.2.586-.707.291-1.079.321-.44.035-.238-.349-.239-.532q-.014-6.23,0-12.46l.141-.081H61.86c.065.076.125.072.18-.01.761-.243.959-.853.41-1.363-1.117-1.036-2.26-2.045-3.462-2.984-.314-.245-.51-.62-.884-.8,0-.073-.023-.113-.1-.094l-2.573-2.217c0-.073-.023-.113-.1-.094q-2.863-2.486-5.723-4.975c-.271-.237-.557-.161-.851-.134-.1-.021-.212-.055-.257.091" transform="translate(-24.54 -111.292)" fill="#fff"/>
        <path id="Trazado_787606" data-name="Trazado 787606" d="M336.508,297.23a7.434,7.434,0,0,1,3.357-.231,10.349,10.349,0,0,1,6.866,16.949,10.67,10.67,0,0,1-6.595,3.688,7.248,7.248,0,0,1-3.525-.2c-.112-.224-.353-.26-.544-.359a10.416,10.416,0,0,1-3.464-2.994,10.732,10.732,0,0,1-2.19-8.255,10.87,10.87,0,0,1,3.805-7.017,21.862,21.862,0,0,1,2.289-1.578m1.727,12.688c0,.527-.022,1.055.007,1.58.025.459-.165.5-.544.386a5.6,5.6,0,0,1-1.91-.948.9.9,0,0,0-1.289.051c-.327.441-.2.858.3,1.276a4.835,4.835,0,0,0,2.322,1.161c.83.126,1.261.344,1.114,1.272a.558.558,0,0,0,.6.609.6.6,0,0,0,.595-.686c-.024-.2.017-.408-.009-.607-.054-.4.122-.466.5-.517a3.955,3.955,0,0,0,2.267-.968,3.492,3.492,0,0,0,1.029-3.012,2.712,2.712,0,0,0-1.63-2.4,8.774,8.774,0,0,0-1.7-.637c-.282-.071-.365-.145-.363-.41q.011-1.459,0-2.918c0-.3.073-.405.392-.284a5.439,5.439,0,0,1,1.552.728.662.662,0,0,0,1-.066.738.738,0,0,0,.048-1.113,3.359,3.359,0,0,0-1.945-1.062c-1.112-.2-1.128-.185-1.135-1.337,0-.449-.2-.613-.621-.616-.6,0-.632.423-.593.833.061.637-.081.963-.823,1.024a3.2,3.2,0,0,0-2.028,1.04,3.319,3.319,0,0,0-.764,1.691,2.752,2.752,0,0,0,1.18,3.019,7.821,7.821,0,0,0,1.916.788c.391.1.6.262.549.722a12.18,12.18,0,0,0-.012,1.4" transform="translate(-290.031 -260.715)" fill="#ffd25c"/>
        <path id="Trazado_787607" data-name="Trazado 787607" d="M115.98,25.114c-1.4,0-2.772.007-4.145,0-.5,0-1.159.217-1.466-.084-.336-.33-.054-1-.119-1.514s.118-.752.641-.856a6.174,6.174,0,0,0,1.728-.7.831.831,0,0,0,.33-.479c.261-.618.479-1.254.749-1.868a.985.985,0,0,0-.008-.909,12.229,12.229,0,0,0-.782-1.53c-.231-.329-.15-.479.1-.677a2.237,2.237,0,0,0,.173-.17c1.04-1.04,1.056-1.065,2.284-.274a1.631,1.631,0,0,0,1.973.093,4.118,4.118,0,0,1,1.323-.5c.856-.19.936-.915,1.094-1.548a5.892,5.892,0,0,0,.3-.961.094.094,0,0,1,.031-.052c.524-.52,1.178-.109,1.756-.242.286-.066.339.108.437.337.251.586.367,1.215.627,1.8a1.024,1.024,0,0,0,.7.652,7.311,7.311,0,0,1,1.687.7,1.08,1.08,0,0,0,1.141.007c.45-.251.922-.469,1.353-.749a.5.5,0,0,1,.791.14,1.425,1.425,0,0,0,.17.173c.99.99,1.1,1.074.324,2.138a2.05,2.05,0,0,0,.054,2.5c.037.07.131.127.136.194.082,1.221.907,1.6,1.949,1.857s1.019.31,1.019,1.38c0,1.157,0,1.157-1.178,1.157-1.378,0-2.755,0-4.133,0-.255,0-.542.019-.429-.359a4.207,4.207,0,0,0-.37-2.828,4.854,4.854,0,0,0-3.7-3.257,5.177,5.177,0,0,0-4.9,1.293,5.632,5.632,0,0,0-1.741,4.744,2.5,2.5,0,0,0,.1.406" transform="translate(-96.765 -11.242)" fill="#fe502d"/>
        <path id="Trazado_787608" data-name="Trazado 787608" d="M146.578,175.706l2.3,2.066.14.365-.038.013q-5.156,0-10.313-.005-4.368-.005-8.735-.019c.409-.385.805-.784,1.229-1.152q2.514-2.179,5.044-4.34c1.134-.969,2.28-1.924,3.42-2.886,1.121.962,2.233,1.936,3.366,2.884,1.118.936,2.158,1.963,3.335,2.828l.248.245" transform="translate(-114.094 -149.052)" fill="#1cb5cc"/>
        <path id="Trazado_787609" data-name="Trazado 787609" d="M146.918,442.949c2.47-.009,4.94-.014,7.41-.032a.637.637,0,0,1,.595.329c.813,1.283,1.622,2.569,2.445,3.846.421.654.871,1.29,1.3,1.938.107.16.2.331.341.574H142.787a1.368,1.368,0,0,1,.105-.275q1.832-2.816,3.668-5.631c.15-.231.383-.43.358-.748" transform="translate(-125.378 -388.916)" fill="#7894a0"/>
        <path id="Trazado_787610" data-name="Trazado 787610" d="M15.646,126.807a2.871,2.871,0,0,0-.737,2.047q.02,16.245,0,32.49a3.544,3.544,0,0,0,.618,2.283.2.2,0,0,0-.008.1l-.72-.018c-.063-.087-.1-.045-.127.028a2.078,2.078,0,0,1-1.53-1.643,3.131,3.131,0,0,1,.058-.87q-.027-15.873,0-31.747c0-.424-.212-.816-.018-1.283a2.062,2.062,0,0,1,2.466-1.39" transform="translate(-11.502 -111.33)" fill="#f9dbea"/>
        <path id="Trazado_787611" data-name="Trazado 787611" d="M155.953,251.922c.687,0,1.375.012,2.062,0,.292,0,.438.06.436.4q-.027,6.276-.032,12.553l-.075.089-2.415.017-.112-.1q0-6.439,0-12.879l.141-.081" transform="translate(-136.815 -221.208)" fill="#fff"/>
        <path id="Trazado_787612" data-name="Trazado 787612" d="M228.117,252q0,6.441,0,12.882l-.118.1-2.41-.012c0-1.7-.015-3.4-.012-5.093q.005-3.971.025-7.942l2.373-.011.145.079" transform="translate(-198.072 -221.208)" fill="#fff"/>
        <path id="Trazado_787613" data-name="Trazado 787613" d="M322.523,299.5a21.849,21.849,0,0,0-2.289,1.578,10.871,10.871,0,0,0-3.805,7.017,10.732,10.732,0,0,0,2.19,8.255,10.416,10.416,0,0,0,3.463,2.994c.191.1.432.135.544.359a9.923,9.923,0,0,1-5.041-2.756,10.777,10.777,0,0,1-2.748-4.476c-.064-.194-.06-.393-.138-.577l-.016-.123a3.319,3.319,0,0,0-.226-1.265,7.73,7.73,0,0,1,.119-2.675,9.678,9.678,0,0,1,2.834-5.554,8.858,8.858,0,0,1,5.113-2.777" transform="translate(-276.046 -262.987)" fill="#fd9f44"/>
        <path id="Trazado_787614" data-name="Trazado 787614" d="M188.533,77.708l-5.7.012a.866.866,0,0,0-.011-.09,5.744,5.744,0,0,1-.06-1.85,5.292,5.292,0,0,1,1.766-3,3.8,3.8,0,0,1,4.254,3.777,8.851,8.851,0,0,1-.147,1.061l-.1.1" transform="translate(-160.434 -63.866)" fill="#fff"/>
        <path id="Trazado_787615" data-name="Trazado 787615" d="M270.812,252.576q.01,6.257.025,12.515c0,.367-.125.523-.5.495-.322-.024-.646-.02-.969-.029a.435.435,0,0,0,0-.089c0-.466.009-.932.009-1.4q.009-5.743.016-11.487l1.42-.006" transform="translate(-236.526 -221.782)" fill="#9ad8e3"/>
        <path id="Trazado_787616" data-name="Trazado 787616" d="M125.236,163.763c-1.14.961-2.286,1.917-3.42,2.886q-2.53,2.161-5.044,4.34c-.424.367-.82.767-1.23,1.152l-.127.058-1.871-.027a24.5,24.5,0,0,1,2.538-2.305c1.314-1.209,2.716-2.323,4.069-3.49q1.916-1.653,3.8-3.34c.2-.179.325-.1.461.013.282.228.548.474.821.713" transform="translate(-99.701 -143.068)" fill="#00a7b2"/>
        <path id="Trazado_787617" data-name="Trazado 787617" d="M132.057,265.514a2.821,2.821,0,0,1-1.354.088.456.456,0,0,0,0-.089c0-.466.009-.932.009-1.4q.009-5.744.016-11.487l1.314,0q.009,6.441.019,12.883" transform="translate(-114.763 -221.827)" fill="#9ad8e3"/>
        <path id="Trazado_787618" data-name="Trazado 787618" d="M201.93,265.371c-.43.247-.893.1-1.343.111q.007-6.491.013-12.982l1.32-.016.016.005q0,6.441-.006,12.882" transform="translate(-176.131 -221.701)" fill="#9ad8e3"/>
        <path id="Trazado_787619" data-name="Trazado 787619" d="M191.587,252.427q-.007,6.491-.013,12.982c-.418-.031-.854.16-1.252-.108.009-1.191.023-2.381.027-3.572q.018-4.664.029-9.329l1.209.026" transform="translate(-167.118 -221.628)" fill="#5ec4d6"/>
        <path id="Trazado_787620" data-name="Trazado 787620" d="M133.092,442.827c.026.318-.208.517-.358.748q-1.828,2.82-3.668,5.631a1.365,1.365,0,0,0-.105.275c-.5.007-1.01,0-1.514.026-.414.02-.524-.087-.271-.459.385-.568.752-1.149,1.127-1.724.86-1.317,1.738-2.624,2.571-3.958a1,1,0,0,1,1.07-.576c.378.047.765.028,1.148.038" transform="translate(-111.553 -388.795)" fill="#717272"/>
        <path id="Trazado_787621" data-name="Trazado 787621" d="M172.932,73.054a5.292,5.292,0,0,0-1.766,3,5.742,5.742,0,0,0,.06,1.85l-.12.1c-.3,0-.609-.012-.909.02-.5.052-.651-.169-.68-.644a4.1,4.1,0,0,1,.872-3.024,3.116,3.116,0,0,1,2.543-1.3" transform="translate(-148.84 -64.145)" fill="#f9dbea"/>
        <path id="Trazado_787622" data-name="Trazado 787622" d="M128.845,238.522l.127-.058q4.368.01,8.735.019,5.157.006,10.313.006c-.1.146-.254.1-.388.1q-9.4,0-18.794-.008l.007-.058" transform="translate(-113.13 -209.39)" fill="#60575b"/>
        <path id="Trazado_787623" data-name="Trazado 787623" d="M388.3,160.839v-17.17c.181.164.1.38.1.572q.007,8.013,0,16.027c0,.191.08.408-.1.572" transform="translate(-340.958 -126.153)" fill="#717272"/>
        <path id="Trazado_787624" data-name="Trazado 787624" d="M260.719,265.406a.442.442,0,0,1,.005.089c-1.206.055-1.206.055-1.206-1.113q0-5.606,0-11.213c0-.221.019-.442.028-.663a.978.978,0,0,0,.1.023q-.007,5.888-.015,11.777c0,1.081,0,1.081,1.086,1.1" transform="translate(-227.878 -221.721)" fill="#1cb5cc"/>
        <path id="Trazado_787625" data-name="Trazado 787625" d="M122.034,265.4a.447.447,0,0,1,0,.089c-1.208.055-1.208.055-1.208-1.11q0-5.608,0-11.216c0-.221.019-.443.028-.664l.1.023q-.008,5.889-.015,11.779c0,1.081,0,1.081,1.086,1.1" transform="translate(-106.1 -221.712)" fill="#1cb5cc"/>
        <path id="Trazado_787626" data-name="Trazado 787626" d="M224.524,252.015q-.013,3.971-.025,7.942c0,1.7.008,3.4.012,5.093-.227-.11-.126-.32-.127-.482q-.009-6.062,0-12.123c0-.137-.149-.366.135-.43" transform="translate(-196.997 -221.289)" fill="#7894a0"/>
        <path id="Trazado_787627" data-name="Trazado 787627" d="M189.616,251.7q-.014,4.664-.029,9.328c0,1.191-.018,2.382-.027,3.572-.147-.178-.085-.389-.085-.586q-.005-5.9,0-11.8c0-.207-.1-.452.132-.615a.151.151,0,0,0,.007.1" transform="translate(-166.356 -220.928)" fill="#3d3d3d"/>
        <path id="Trazado_787628" data-name="Trazado 787628" d="M211.6,265.409q0-6.441.006-12.882c.166.115.112.291.112.445q0,6.071,0,12.142a2.572,2.572,0,0,1-.026.3c0,.011-.027.028-.04.027a.159.159,0,0,1-.053-.027" transform="translate(-185.802 -221.739)" fill="#60575b"/>
        <path id="Trazado_787629" data-name="Trazado 787629" d="M141.709,265.471q-.01-6.442-.019-12.883l.054-.009h.055q.009,6.318.018,12.636c0,.1.008.2-.109.255" transform="translate(-124.415 -221.784)" fill="#5ec4d6"/>
        <path id="Trazado_787630" data-name="Trazado 787630" d="M259.862,251.452a.963.963,0,0,1-.1-.023,5.641,5.641,0,0,1,2.616.009l-1.42.006-1.1.009" transform="translate(-228.092 -220.643)" fill="#717272"/>
        <path id="Trazado_787631" data-name="Trazado 787631" d="M123.7,251.439h-.055l-.055.009-1.315,0-1.1.007-.1-.023a5.677,5.677,0,0,1,2.623.011" transform="translate(-106.313 -220.644)" fill="#717272"/>
        <path id="Trazado_787632" data-name="Trazado 787632" d="M190.694,251.516a.151.151,0,0,1-.007-.1c.682,0,1.364-.015,2.045-.008.166,0,.367-.086.491.116l-1.32.016-1.209-.026" transform="translate(-167.434 -220.743)" fill="#717272"/>
        <path id="Trazado_787633" data-name="Trazado 787633" d="M115.415,238.745l-.007.058a6.033,6.033,0,0,1-1.865-.086l1.871.027" transform="translate(-99.701 -209.613)" fill="#3d3d3d"/>
        <path id="Trazado_787634" data-name="Trazado 787634" d="M285.473,235.925l-.14-.365a.264.264,0,0,1,.29.236c.02.1-.072.117-.15.129" transform="translate(-250.545 -206.84)" fill="#282828"/>
        <path id="Trazado_787635" data-name="Trazado 787635" d="M264.651,216.848l-.248-.245a.218.218,0,0,1,.248.245" transform="translate(-232.167 -190.195)" fill="#282828"/>
        <path id="Trazado_787636" data-name="Trazado 787636" d="M196.473,147.942c.045-.146.154-.112.257-.091l-.257.091" transform="translate(-172.519 -129.808)" fill="#282828"/>
        <path id="Trazado_787637" data-name="Trazado 787637" d="M32.931,429.046a.2.2,0,0,1,.008-.1l.248.1h-.256" transform="translate(-28.913 -376.646)" fill="#adadac"/>
        <path id="Trazado_787638" data-name="Trazado 787638" d="M316.022,400.153l.016.123-.138-.052.122-.071" transform="translate(-277.385 -351.366)" fill="#282828"/>
        <path id="Trazado_787639" data-name="Trazado 787639" d="M245.388,251.846l-.145-.079c.088-.047.133-.015.145.079" transform="translate(-215.343 -221.053)" fill="#717272"/>
        <path id="Trazado_787640" data-name="Trazado 787640" d="M252.505,189.859c.08-.019.106.022.1.094l-.1-.094" transform="translate(-221.719 -166.707)" fill="#282828"/>
        <path id="Trazado_787641" data-name="Trazado 787641" d="M274.452,208.815c.08-.019.106.022.1.094l-.1-.094" transform="translate(-240.991 -183.352)" fill="#282828"/>
        <path id="Trazado_787642" data-name="Trazado 787642" d="M155.832,358.214l.112.1c-.093.03-.124-.011-.112-.1" transform="translate(-136.831 -314.54)" fill="#adadac"/>
        <path id="Trazado_787643" data-name="Trazado 787643" d="M176.581,358.252l.075-.089c.031.077,0,.1-.075.089" transform="translate(-155.052 -314.496)" fill="#adadac"/>
        <path id="Trazado_787644" data-name="Trazado 787644" d="M245.443,358.323l.118-.1c.011.093-.027.127-.118.1" transform="translate(-215.518 -314.55)" fill="#adadac"/>
        <path id="Trazado_787645" data-name="Trazado 787645" d="M230.467,112.847l.1-.1c.01.078-.022.112-.1.1" transform="translate(-202.368 -99.005)" fill="#adadac"/>
        <path id="Trazado_787646" data-name="Trazado 787646" d="M155.953,251.771l-.141.081c.008-.1.053-.127.141-.081" transform="translate(-136.815 -221.057)" fill="#717272"/>
        <path id="Trazado_787647" data-name="Trazado 787647" d="M307.69,419.132l-.092-.017.088-.092c0,.036,0,.073,0,.109" transform="translate(-270.095 -367.936)" fill="#282828"/>
        <path id="Trazado_787648" data-name="Trazado 787648" d="M26.009,429.322c.028-.073.063-.115.127-.028l-.127.028" transform="translate(-22.838 -376.912)" fill="#adadac"/>
        <path id="Trazado_787649" data-name="Trazado 787649" d="M294.624,251.772l-.141.081c.008-.1.052-.127.141-.081" transform="translate(-258.579 -221.057)" fill="#717272"/>
        <path id="Trazado_787650" data-name="Trazado 787650" d="M312.275,429.141l.111-.092c.009.086-.019.127-.111.092" transform="translate(-274.202 -376.739)" fill="#adadac"/>
        <path id="Trazado_787651" data-name="Trazado 787651" d="M182.637,112.989l.12-.1a.864.864,0,0,1,.011.09l-.13.007" transform="translate(-160.37 -99.127)" fill="#adadac"/>
        <path id="Trazado_787652" data-name="Trazado 787652" d="M306.284,251.836c-.056.082-.116.086-.18.01l.18-.01" transform="translate(-268.784 -221.132)" fill="#717272"/>
        <path id="Trazado_787653" data-name="Trazado 787653" d="M367.141,327.846a12.18,12.18,0,0,1,.012-1.4c.053-.46-.158-.626-.549-.722a7.824,7.824,0,0,1-1.916-.788,2.752,2.752,0,0,1-1.18-3.019,3.319,3.319,0,0,1,.764-1.691,3.2,3.2,0,0,1,2.028-1.04c.742-.061.884-.387.823-1.024-.039-.41-.009-.837.593-.833.418,0,.619.167.621.616.007,1.152.023,1.139,1.135,1.337a3.359,3.359,0,0,1,1.945,1.062.738.738,0,0,1-.048,1.113.662.662,0,0,1-1,.066,5.435,5.435,0,0,0-1.552-.728c-.32-.122-.394-.014-.392.284q.01,1.459,0,2.918c0,.265.081.339.363.41a8.771,8.771,0,0,1,1.7.637,2.711,2.711,0,0,1,1.63,2.4,3.492,3.492,0,0,1-1.029,3.012,3.954,3.954,0,0,1-2.267.968c-.377.05-.553.114-.5.517.027.2-.015.407.009.607a.6.6,0,0,1-.595.686.558.558,0,0,1-.6-.609c.147-.928-.283-1.146-1.114-1.272a4.836,4.836,0,0,1-2.322-1.161c-.5-.418-.625-.835-.3-1.276a.9.9,0,0,1,1.289-.051,5.6,5.6,0,0,0,1.91.948c.379.114.569.073.544-.386-.028-.525-.007-1.053-.006-1.58m-.012-7.2c-.232.034-.466.057-.7.1a1.5,1.5,0,0,0-1.083,2.16,2.637,2.637,0,0,0,1.38.935c.386.163.436.074.434-.273-.005-.952,0-1.9,0-2.857l.027-.031-.065-.037m1.436,5.634c-.045-.055-.083-.043-.116.013-.007,1.072-.017,2.144-.021,3.216,0,.171-.054.37.253.362a2.2,2.2,0,0,0,1.545-1.116,1.461,1.461,0,0,0-.3-1.747,3.884,3.884,0,0,0-1.361-.728" transform="translate(-318.938 -278.642)" fill="#262626"/>
        <path id="Trazado_787654" data-name="Trazado 787654" d="M260.476,252.637l1.1-.009q-.008,5.743-.016,11.487c0,.466-.006.932-.009,1.4-1.086-.018-1.087-.018-1.086-1.1q.007-5.888.015-11.777" transform="translate(-228.706 -221.827)" fill="#5ec4d6"/>
        <path id="Trazado_787655" data-name="Trazado 787655" d="M121.8,252.634l1.1-.007q-.008,5.744-.016,11.487c0,.466-.006.932-.009,1.4-1.086-.018-1.087-.018-1.086-1.1q.007-5.889.015-11.779" transform="translate(-106.939 -221.827)" fill="#5ec4d6"/>
        <path id="Trazado_787656" data-name="Trazado 787656" d="M406.028,390.729a3.885,3.885,0,0,1,1.361.728,1.461,1.461,0,0,1,.3,1.747,2.2,2.2,0,0,1-1.545,1.116c-.307.008-.253-.192-.253-.362,0-1.072.013-2.144.021-3.216h.059Z" transform="translate(-356.401 -343.091)" fill="#ffd25c"/>
        <path id="Trazado_787657" data-name="Trazado 787657" d="M381.171,344.583c0,.952-.008,1.9,0,2.857,0,.348-.048.437-.434.273a2.637,2.637,0,0,1-1.38-.935,1.5,1.5,0,0,1,1.083-2.16c.229-.046.464-.069.7-.1a.058.058,0,0,0,.039.069" transform="translate(-332.941 -302.511)" fill="#ffd25c"/>
        <path id="Trazado_787658" data-name="Trazado 787658" d="M395.3,344.583a.058.058,0,0,1-.039-.069l.065.038-.026.031" transform="translate(-347.066 -302.511)" fill="#60575b"/>
        <path id="Trazado_787659" data-name="Trazado 787659" d="M406.205,390.47l-.057.013h-.059c.033-.056.071-.068.116-.013" transform="translate(-356.578 -342.832)" fill="#3d3d3d"/>
      </g>
    </g>
  </g>
</svg>
